ISO-10303-21;
HEADER;
/* Generated by software containing ST-Developer
 * from STEP Tools, Inc. (www.steptools.com) 
 */

FILE_DESCRIPTION(
/* description */ (''),
/* implementation_level */ '2;1');

FILE_NAME(
/* name */ 'din_rail_adapter_l298_board.step',
/* time_stamp */ '2026-06-02T09:49:19+02:00',
/* author */ (''),
/* organization */ (''),
/* preprocessor_version */ 'ST-DEVELOPER v20.1',
/* originating_system */ 'Autodesk Translation Framework v15.8.0.0',
/* authorisation */ '');

FILE_SCHEMA (('AUTOMOTIVE_DESIGN { 1 0 10303 214 3 1 1 }'));
ENDSEC;

DATA;
#10=MECHANICAL_DESIGN_GEOMETRIC_PRESENTATION_REPRESENTATION('',(#13),#771);
#11=SHAPE_REPRESENTATION_RELATIONSHIP('SRR','None',#778,#12);
#12=ADVANCED_BREP_SHAPE_REPRESENTATION('',(#14),#770);
#13=STYLED_ITEM('',(#787),#14);
#14=MANIFOLD_SOLID_BREP('K\X\F6rper1',#443);
#15=FACE_BOUND('',#78,.T.);
#16=FACE_BOUND('',#81,.T.);
#17=FACE_BOUND('',#84,.T.);
#18=FACE_BOUND('',#87,.T.);
#19=FACE_BOUND('',#90,.T.);
#20=FACE_BOUND('',#93,.T.);
#21=FACE_BOUND('',#96,.T.);
#22=FACE_BOUND('',#109,.T.);
#23=FACE_BOUND('',#110,.T.);
#24=FACE_BOUND('',#111,.T.);
#25=FACE_BOUND('',#112,.T.);
#26=FACE_BOUND('',#113,.T.);
#27=FACE_BOUND('',#114,.T.);
#28=FACE_BOUND('',#115,.T.);
#29=FACE_BOUND('',#117,.T.);
#30=FACE_BOUND('',#118,.T.);
#31=FACE_BOUND('',#119,.T.);
#32=FACE_BOUND('',#120,.T.);
#33=FACE_BOUND('',#121,.T.);
#34=FACE_BOUND('',#122,.T.);
#35=FACE_BOUND('',#123,.T.);
#36=PLANE('',#460);
#37=PLANE('',#465);
#38=PLANE('',#470);
#39=PLANE('',#475);
#40=PLANE('',#480);
#41=PLANE('',#485);
#42=PLANE('',#490);
#43=PLANE('',#506);
#44=PLANE('',#507);
#45=PLANE('',#508);
#46=PLANE('',#509);
#47=PLANE('',#510);
#48=PLANE('',#511);
#49=FACE_OUTER_BOUND('',#76,.T.);
#50=FACE_OUTER_BOUND('',#77,.T.);
#51=FACE_OUTER_BOUND('',#79,.T.);
#52=FACE_OUTER_BOUND('',#80,.T.);
#53=FACE_OUTER_BOUND('',#82,.T.);
#54=FACE_OUTER_BOUND('',#83,.T.);
#55=FACE_OUTER_BOUND('',#85,.T.);
#56=FACE_OUTER_BOUND('',#86,.T.);
#57=FACE_OUTER_BOUND('',#88,.T.);
#58=FACE_OUTER_BOUND('',#89,.T.);
#59=FACE_OUTER_BOUND('',#91,.T.);
#60=FACE_OUTER_BOUND('',#92,.T.);
#61=FACE_OUTER_BOUND('',#94,.T.);
#62=FACE_OUTER_BOUND('',#95,.T.);
#63=FACE_OUTER_BOUND('',#97,.T.);
#64=FACE_OUTER_BOUND('',#98,.T.);
#65=FACE_OUTER_BOUND('',#99,.T.);
#66=FACE_OUTER_BOUND('',#100,.T.);
#67=FACE_OUTER_BOUND('',#101,.T.);
#68=FACE_OUTER_BOUND('',#102,.T.);
#69=FACE_OUTER_BOUND('',#103,.T.);
#70=FACE_OUTER_BOUND('',#104,.T.);
#71=FACE_OUTER_BOUND('',#105,.T.);
#72=FACE_OUTER_BOUND('',#106,.T.);
#73=FACE_OUTER_BOUND('',#107,.T.);
#74=FACE_OUTER_BOUND('',#108,.T.);
#75=FACE_OUTER_BOUND('',#116,.T.);
#76=EDGE_LOOP('',(#294,#295,#296,#297));
#77=EDGE_LOOP('',(#298));
#78=EDGE_LOOP('',(#299));
#79=EDGE_LOOP('',(#300,#301,#302,#303));
#80=EDGE_LOOP('',(#304));
#81=EDGE_LOOP('',(#305));
#82=EDGE_LOOP('',(#306,#307,#308,#309));
#83=EDGE_LOOP('',(#310));
#84=EDGE_LOOP('',(#311));
#85=EDGE_LOOP('',(#312,#313,#314,#315));
#86=EDGE_LOOP('',(#316));
#87=EDGE_LOOP('',(#317));
#88=EDGE_LOOP('',(#318,#319,#320,#321));
#89=EDGE_LOOP('',(#322));
#90=EDGE_LOOP('',(#323));
#91=EDGE_LOOP('',(#324,#325,#326,#327));
#92=EDGE_LOOP('',(#328));
#93=EDGE_LOOP('',(#329));
#94=EDGE_LOOP('',(#330,#331,#332,#333));
#95=EDGE_LOOP('',(#334));
#96=EDGE_LOOP('',(#335));
#97=EDGE_LOOP('',(#336,#337,#338,#339));
#98=EDGE_LOOP('',(#340,#341,#342,#343));
#99=EDGE_LOOP('',(#344,#345,#346,#347));
#100=EDGE_LOOP('',(#348,#349,#350,#351));
#101=EDGE_LOOP('',(#352,#353,#354,#355));
#102=EDGE_LOOP('',(#356,#357,#358,#359));
#103=EDGE_LOOP('',(#360,#361,#362,#363));
#104=EDGE_LOOP('',(#364,#365,#366,#367));
#105=EDGE_LOOP('',(#368,#369,#370,#371));
#106=EDGE_LOOP('',(#372,#373,#374,#375));
#107=EDGE_LOOP('',(#376,#377,#378,#379));
#108=EDGE_LOOP('',(#380,#381,#382,#383));
#109=EDGE_LOOP('',(#384));
#110=EDGE_LOOP('',(#385));
#111=EDGE_LOOP('',(#386));
#112=EDGE_LOOP('',(#387));
#113=EDGE_LOOP('',(#388));
#114=EDGE_LOOP('',(#389));
#115=EDGE_LOOP('',(#390));
#116=EDGE_LOOP('',(#391,#392,#393,#394));
#117=EDGE_LOOP('',(#395));
#118=EDGE_LOOP('',(#396));
#119=EDGE_LOOP('',(#397));
#120=EDGE_LOOP('',(#398));
#121=EDGE_LOOP('',(#399));
#122=EDGE_LOOP('',(#400));
#123=EDGE_LOOP('',(#401));
#124=LINE('',#655,#150);
#125=LINE('',#664,#151);
#126=LINE('',#673,#152);
#127=LINE('',#682,#153);
#128=LINE('',#691,#154);
#129=LINE('',#700,#155);
#130=LINE('',#709,#156);
#131=LINE('',#717,#157);
#132=LINE('',#720,#158);
#133=LINE('',#724,#159);
#134=LINE('',#729,#160);
#135=LINE('',#733,#161);
#136=LINE('',#737,#162);
#137=LINE('',#740,#163);
#138=LINE('',#745,#164);
#139=LINE('',#747,#165);
#140=LINE('',#749,#166);
#141=LINE('',#750,#167);
#142=LINE('',#753,#168);
#143=LINE('',#755,#169);
#144=LINE('',#756,#170);
#145=LINE('',#759,#171);
#146=LINE('',#761,#172);
#147=LINE('',#762,#173);
#148=LINE('',#764,#174);
#149=LINE('',#765,#175);
#150=VECTOR('',#518,1.65);
#151=VECTOR('',#529,1.65);
#152=VECTOR('',#540,1.65);
#153=VECTOR('',#551,3.);
#154=VECTOR('',#562,3.);
#155=VECTOR('',#573,3.);
#156=VECTOR('',#584,3.);
#157=VECTOR('',#595,1.4);
#158=VECTOR('',#598,2.99999983608723);
#159=VECTOR('',#603,3.00000011920929);
#160=VECTOR('',#610,1.4);
#161=VECTOR('',#615,1.4);
#162=VECTOR('',#620,1.4);
#163=VECTOR('',#623,2.99999998509884);
#164=VECTOR('',#628,10.);
#165=VECTOR('',#629,10.);
#166=VECTOR('',#630,10.);
#167=VECTOR('',#631,10.);
#168=VECTOR('',#634,10.);
#169=VECTOR('',#635,10.);
#170=VECTOR('',#636,10.);
#171=VECTOR('',#639,10.);
#172=VECTOR('',#640,10.);
#173=VECTOR('',#641,10.);
#174=VECTOR('',#644,10.);
#175=VECTOR('',#645,10.);
#176=CIRCLE('',#458,1.65);
#177=CIRCLE('',#459,1.65);
#178=CIRCLE('',#461,2.99999983608723);
#179=CIRCLE('',#463,1.65);
#180=CIRCLE('',#464,1.65);
#181=CIRCLE('',#466,3.00000011920929);
#182=CIRCLE('',#468,1.65);
#183=CIRCLE('',#469,1.65);
#184=CIRCLE('',#471,2.99999998509884);
#185=CIRCLE('',#473,3.);
#186=CIRCLE('',#474,3.);
#187=CIRCLE('',#476,1.4);
#188=CIRCLE('',#478,3.);
#189=CIRCLE('',#479,3.);
#190=CIRCLE('',#481,1.4);
#191=CIRCLE('',#483,3.);
#192=CIRCLE('',#484,3.);
#193=CIRCLE('',#486,1.4);
#194=CIRCLE('',#488,3.);
#195=CIRCLE('',#489,3.);
#196=CIRCLE('',#491,1.4);
#197=CIRCLE('',#493,1.4);
#198=CIRCLE('',#495,2.99999983608723);
#199=CIRCLE('',#497,3.00000011920929);
#200=CIRCLE('',#499,1.4);
#201=CIRCLE('',#501,1.4);
#202=CIRCLE('',#503,1.4);
#203=CIRCLE('',#505,2.99999998509884);
#204=VERTEX_POINT('',#652);
#205=VERTEX_POINT('',#654);
#206=VERTEX_POINT('',#658);
#207=VERTEX_POINT('',#661);
#208=VERTEX_POINT('',#663);
#209=VERTEX_POINT('',#667);
#210=VERTEX_POINT('',#670);
#211=VERTEX_POINT('',#672);
#212=VERTEX_POINT('',#676);
#213=VERTEX_POINT('',#679);
#214=VERTEX_POINT('',#681);
#215=VERTEX_POINT('',#685);
#216=VERTEX_POINT('',#688);
#217=VERTEX_POINT('',#690);
#218=VERTEX_POINT('',#694);
#219=VERTEX_POINT('',#697);
#220=VERTEX_POINT('',#699);
#221=VERTEX_POINT('',#703);
#222=VERTEX_POINT('',#706);
#223=VERTEX_POINT('',#708);
#224=VERTEX_POINT('',#712);
#225=VERTEX_POINT('',#715);
#226=VERTEX_POINT('',#719);
#227=VERTEX_POINT('',#723);
#228=VERTEX_POINT('',#727);
#229=VERTEX_POINT('',#731);
#230=VERTEX_POINT('',#735);
#231=VERTEX_POINT('',#739);
#232=VERTEX_POINT('',#743);
#233=VERTEX_POINT('',#744);
#234=VERTEX_POINT('',#746);
#235=VERTEX_POINT('',#748);
#236=VERTEX_POINT('',#752);
#237=VERTEX_POINT('',#754);
#238=VERTEX_POINT('',#758);
#239=VERTEX_POINT('',#760);
#240=EDGE_CURVE('',#204,#204,#176,.T.);
#241=EDGE_CURVE('',#204,#205,#124,.T.);
#242=EDGE_CURVE('',#205,#205,#177,.T.);
#243=EDGE_CURVE('',#206,#206,#178,.T.);
#244=EDGE_CURVE('',#207,#207,#179,.T.);
#245=EDGE_CURVE('',#207,#208,#125,.T.);
#246=EDGE_CURVE('',#208,#208,#180,.T.);
#247=EDGE_CURVE('',#209,#209,#181,.T.);
#248=EDGE_CURVE('',#210,#210,#182,.T.);
#249=EDGE_CURVE('',#210,#211,#126,.T.);
#250=EDGE_CURVE('',#211,#211,#183,.T.);
#251=EDGE_CURVE('',#212,#212,#184,.T.);
#252=EDGE_CURVE('',#213,#213,#185,.T.);
#253=EDGE_CURVE('',#213,#214,#127,.T.);
#254=EDGE_CURVE('',#214,#214,#186,.T.);
#255=EDGE_CURVE('',#215,#215,#187,.T.);
#256=EDGE_CURVE('',#216,#216,#188,.T.);
#257=EDGE_CURVE('',#216,#217,#128,.T.);
#258=EDGE_CURVE('',#217,#217,#189,.T.);
#259=EDGE_CURVE('',#218,#218,#190,.T.);
#260=EDGE_CURVE('',#219,#219,#191,.T.);
#261=EDGE_CURVE('',#219,#220,#129,.T.);
#262=EDGE_CURVE('',#220,#220,#192,.T.);
#263=EDGE_CURVE('',#221,#221,#193,.T.);
#264=EDGE_CURVE('',#222,#222,#194,.T.);
#265=EDGE_CURVE('',#222,#223,#130,.T.);
#266=EDGE_CURVE('',#223,#223,#195,.T.);
#267=EDGE_CURVE('',#224,#224,#196,.T.);
#268=EDGE_CURVE('',#225,#225,#197,.T.);
#269=EDGE_CURVE('',#225,#224,#131,.T.);
#270=EDGE_CURVE('',#206,#226,#132,.T.);
#271=EDGE_CURVE('',#226,#226,#198,.T.);
#272=EDGE_CURVE('',#209,#227,#133,.T.);
#273=EDGE_CURVE('',#227,#227,#199,.T.);
#274=EDGE_CURVE('',#228,#228,#200,.T.);
#275=EDGE_CURVE('',#228,#221,#134,.T.);
#276=EDGE_CURVE('',#229,#229,#201,.T.);
#277=EDGE_CURVE('',#229,#218,#135,.T.);
#278=EDGE_CURVE('',#230,#230,#202,.T.);
#279=EDGE_CURVE('',#230,#215,#136,.T.);
#280=EDGE_CURVE('',#212,#231,#137,.T.);
#281=EDGE_CURVE('',#231,#231,#203,.T.);
#282=EDGE_CURVE('',#232,#233,#138,.T.);
#283=EDGE_CURVE('',#233,#234,#139,.T.);
#284=EDGE_CURVE('',#235,#234,#140,.T.);
#285=EDGE_CURVE('',#232,#235,#141,.T.);
#286=EDGE_CURVE('',#236,#232,#142,.T.);
#287=EDGE_CURVE('',#237,#235,#143,.T.);
#288=EDGE_CURVE('',#236,#237,#144,.T.);
#289=EDGE_CURVE('',#238,#236,#145,.T.);
#290=EDGE_CURVE('',#239,#237,#146,.T.);
#291=EDGE_CURVE('',#238,#239,#147,.T.);
#292=EDGE_CURVE('',#233,#238,#148,.T.);
#293=EDGE_CURVE('',#234,#239,#149,.T.);
#294=ORIENTED_EDGE('',*,*,#240,.F.);
#295=ORIENTED_EDGE('',*,*,#241,.T.);
#296=ORIENTED_EDGE('',*,*,#242,.T.);
#297=ORIENTED_EDGE('',*,*,#241,.F.);
#298=ORIENTED_EDGE('',*,*,#243,.F.);
#299=ORIENTED_EDGE('',*,*,#240,.T.);
#300=ORIENTED_EDGE('',*,*,#244,.F.);
#301=ORIENTED_EDGE('',*,*,#245,.T.);
#302=ORIENTED_EDGE('',*,*,#246,.T.);
#303=ORIENTED_EDGE('',*,*,#245,.F.);
#304=ORIENTED_EDGE('',*,*,#247,.F.);
#305=ORIENTED_EDGE('',*,*,#244,.T.);
#306=ORIENTED_EDGE('',*,*,#248,.F.);
#307=ORIENTED_EDGE('',*,*,#249,.T.);
#308=ORIENTED_EDGE('',*,*,#250,.T.);
#309=ORIENTED_EDGE('',*,*,#249,.F.);
#310=ORIENTED_EDGE('',*,*,#251,.F.);
#311=ORIENTED_EDGE('',*,*,#248,.T.);
#312=ORIENTED_EDGE('',*,*,#252,.F.);
#313=ORIENTED_EDGE('',*,*,#253,.T.);
#314=ORIENTED_EDGE('',*,*,#254,.F.);
#315=ORIENTED_EDGE('',*,*,#253,.F.);
#316=ORIENTED_EDGE('',*,*,#252,.T.);
#317=ORIENTED_EDGE('',*,*,#255,.T.);
#318=ORIENTED_EDGE('',*,*,#256,.F.);
#319=ORIENTED_EDGE('',*,*,#257,.T.);
#320=ORIENTED_EDGE('',*,*,#258,.F.);
#321=ORIENTED_EDGE('',*,*,#257,.F.);
#322=ORIENTED_EDGE('',*,*,#256,.T.);
#323=ORIENTED_EDGE('',*,*,#259,.T.);
#324=ORIENTED_EDGE('',*,*,#260,.F.);
#325=ORIENTED_EDGE('',*,*,#261,.T.);
#326=ORIENTED_EDGE('',*,*,#262,.F.);
#327=ORIENTED_EDGE('',*,*,#261,.F.);
#328=ORIENTED_EDGE('',*,*,#260,.T.);
#329=ORIENTED_EDGE('',*,*,#263,.T.);
#330=ORIENTED_EDGE('',*,*,#264,.F.);
#331=ORIENTED_EDGE('',*,*,#265,.T.);
#332=ORIENTED_EDGE('',*,*,#266,.F.);
#333=ORIENTED_EDGE('',*,*,#265,.F.);
#334=ORIENTED_EDGE('',*,*,#264,.T.);
#335=ORIENTED_EDGE('',*,*,#267,.T.);
#336=ORIENTED_EDGE('',*,*,#268,.F.);
#337=ORIENTED_EDGE('',*,*,#269,.T.);
#338=ORIENTED_EDGE('',*,*,#267,.F.);
#339=ORIENTED_EDGE('',*,*,#269,.F.);
#340=ORIENTED_EDGE('',*,*,#243,.T.);
#341=ORIENTED_EDGE('',*,*,#270,.T.);
#342=ORIENTED_EDGE('',*,*,#271,.F.);
#343=ORIENTED_EDGE('',*,*,#270,.F.);
#344=ORIENTED_EDGE('',*,*,#247,.T.);
#345=ORIENTED_EDGE('',*,*,#272,.T.);
#346=ORIENTED_EDGE('',*,*,#273,.F.);
#347=ORIENTED_EDGE('',*,*,#272,.F.);
#348=ORIENTED_EDGE('',*,*,#274,.F.);
#349=ORIENTED_EDGE('',*,*,#275,.T.);
#350=ORIENTED_EDGE('',*,*,#263,.F.);
#351=ORIENTED_EDGE('',*,*,#275,.F.);
#352=ORIENTED_EDGE('',*,*,#276,.F.);
#353=ORIENTED_EDGE('',*,*,#277,.T.);
#354=ORIENTED_EDGE('',*,*,#259,.F.);
#355=ORIENTED_EDGE('',*,*,#277,.F.);
#356=ORIENTED_EDGE('',*,*,#278,.F.);
#357=ORIENTED_EDGE('',*,*,#279,.T.);
#358=ORIENTED_EDGE('',*,*,#255,.F.);
#359=ORIENTED_EDGE('',*,*,#279,.F.);
#360=ORIENTED_EDGE('',*,*,#251,.T.);
#361=ORIENTED_EDGE('',*,*,#280,.T.);
#362=ORIENTED_EDGE('',*,*,#281,.F.);
#363=ORIENTED_EDGE('',*,*,#280,.F.);
#364=ORIENTED_EDGE('',*,*,#282,.T.);
#365=ORIENTED_EDGE('',*,*,#283,.T.);
#366=ORIENTED_EDGE('',*,*,#284,.F.);
#367=ORIENTED_EDGE('',*,*,#285,.F.);
#368=ORIENTED_EDGE('',*,*,#286,.T.);
#369=ORIENTED_EDGE('',*,*,#285,.T.);
#370=ORIENTED_EDGE('',*,*,#287,.F.);
#371=ORIENTED_EDGE('',*,*,#288,.F.);
#372=ORIENTED_EDGE('',*,*,#289,.T.);
#373=ORIENTED_EDGE('',*,*,#288,.T.);
#374=ORIENTED_EDGE('',*,*,#290,.F.);
#375=ORIENTED_EDGE('',*,*,#291,.F.);
#376=ORIENTED_EDGE('',*,*,#292,.T.);
#377=ORIENTED_EDGE('',*,*,#291,.T.);
#378=ORIENTED_EDGE('',*,*,#293,.F.);
#379=ORIENTED_EDGE('',*,*,#283,.F.);
#380=ORIENTED_EDGE('',*,*,#292,.F.);
#381=ORIENTED_EDGE('',*,*,#282,.F.);
#382=ORIENTED_EDGE('',*,*,#286,.F.);
#383=ORIENTED_EDGE('',*,*,#289,.F.);
#384=ORIENTED_EDGE('',*,*,#254,.T.);
#385=ORIENTED_EDGE('',*,*,#258,.T.);
#386=ORIENTED_EDGE('',*,*,#262,.T.);
#387=ORIENTED_EDGE('',*,*,#266,.T.);
#388=ORIENTED_EDGE('',*,*,#281,.T.);
#389=ORIENTED_EDGE('',*,*,#273,.T.);
#390=ORIENTED_EDGE('',*,*,#271,.T.);
#391=ORIENTED_EDGE('',*,*,#293,.T.);
#392=ORIENTED_EDGE('',*,*,#290,.T.);
#393=ORIENTED_EDGE('',*,*,#287,.T.);
#394=ORIENTED_EDGE('',*,*,#284,.T.);
#395=ORIENTED_EDGE('',*,*,#242,.F.);
#396=ORIENTED_EDGE('',*,*,#246,.F.);
#397=ORIENTED_EDGE('',*,*,#250,.F.);
#398=ORIENTED_EDGE('',*,*,#278,.T.);
#399=ORIENTED_EDGE('',*,*,#276,.T.);
#400=ORIENTED_EDGE('',*,*,#274,.T.);
#401=ORIENTED_EDGE('',*,*,#268,.T.);
#402=CYLINDRICAL_SURFACE('',#457,1.65);
#403=CYLINDRICAL_SURFACE('',#462,1.65);
#404=CYLINDRICAL_SURFACE('',#467,1.65);
#405=CYLINDRICAL_SURFACE('',#472,3.);
#406=CYLINDRICAL_SURFACE('',#477,3.);
#407=CYLINDRICAL_SURFACE('',#482,3.);
#408=CYLINDRICAL_SURFACE('',#487,3.);
#409=CYLINDRICAL_SURFACE('',#492,1.4);
#410=CYLINDRICAL_SURFACE('',#494,2.99999983608723);
#411=CYLINDRICAL_SURFACE('',#496,3.00000011920929);
#412=CYLINDRICAL_SURFACE('',#498,1.4);
#413=CYLINDRICAL_SURFACE('',#500,1.4);
#414=CYLINDRICAL_SURFACE('',#502,1.4);
#415=CYLINDRICAL_SURFACE('',#504,2.99999998509884);
#416=ADVANCED_FACE('',(#49),#402,.F.);
#417=ADVANCED_FACE('',(#50,#15),#36,.F.);
#418=ADVANCED_FACE('',(#51),#403,.F.);
#419=ADVANCED_FACE('',(#52,#16),#37,.F.);
#420=ADVANCED_FACE('',(#53),#404,.F.);
#421=ADVANCED_FACE('',(#54,#17),#38,.F.);
#422=ADVANCED_FACE('',(#55),#405,.T.);
#423=ADVANCED_FACE('',(#56,#18),#39,.T.);
#424=ADVANCED_FACE('',(#57),#406,.T.);
#425=ADVANCED_FACE('',(#58,#19),#40,.T.);
#426=ADVANCED_FACE('',(#59),#407,.T.);
#427=ADVANCED_FACE('',(#60,#20),#41,.T.);
#428=ADVANCED_FACE('',(#61),#408,.T.);
#429=ADVANCED_FACE('',(#62,#21),#42,.T.);
#430=ADVANCED_FACE('',(#63),#409,.F.);
#431=ADVANCED_FACE('',(#64),#410,.F.);
#432=ADVANCED_FACE('',(#65),#411,.F.);
#433=ADVANCED_FACE('',(#66),#412,.F.);
#434=ADVANCED_FACE('',(#67),#413,.F.);
#435=ADVANCED_FACE('',(#68),#414,.F.);
#436=ADVANCED_FACE('',(#69),#415,.F.);
#437=ADVANCED_FACE('',(#70),#43,.T.);
#438=ADVANCED_FACE('',(#71),#44,.T.);
#439=ADVANCED_FACE('',(#72),#45,.T.);
#440=ADVANCED_FACE('',(#73),#46,.T.);
#441=ADVANCED_FACE('',(#74,#22,#23,#24,#25,#26,#27,#28),#47,.T.);
#442=ADVANCED_FACE('',(#75,#29,#30,#31,#32,#33,#34,#35),#48,.F.);
#443=CLOSED_SHELL('',(#416,#417,#418,#419,#420,#421,#422,#423,#424,#425,
#426,#427,#428,#429,#430,#431,#432,#433,#434,#435,#436,#437,#438,#439,#440,
#441,#442));
#444=DERIVED_UNIT_ELEMENT(#446,1.);
#445=DERIVED_UNIT_ELEMENT(#773,-3.);
#446=(
MASS_UNIT()
NAMED_UNIT(*)
SI_UNIT(.KILO.,.GRAM.)
);
#447=DERIVED_UNIT((#444,#445));
#448=MEASURE_REPRESENTATION_ITEM('density measure',
POSITIVE_RATIO_MEASURE(7850.),#447);
#449=PROPERTY_DEFINITION_REPRESENTATION(#454,#451);
#450=PROPERTY_DEFINITION_REPRESENTATION(#455,#452);
#451=REPRESENTATION('material name',(#453),#770);
#452=REPRESENTATION('density',(#448),#770);
#453=DESCRIPTIVE_REPRESENTATION_ITEM('Stahl','Stahl');
#454=PROPERTY_DEFINITION('material property','material name',#780);
#455=PROPERTY_DEFINITION('material property','density of part',#780);
#456=AXIS2_PLACEMENT_3D('',#650,#512,#513);
#457=AXIS2_PLACEMENT_3D('',#651,#514,#515);
#458=AXIS2_PLACEMENT_3D('',#653,#516,#517);
#459=AXIS2_PLACEMENT_3D('',#656,#519,#520);
#460=AXIS2_PLACEMENT_3D('',#657,#521,#522);
#461=AXIS2_PLACEMENT_3D('',#659,#523,#524);
#462=AXIS2_PLACEMENT_3D('',#660,#525,#526);
#463=AXIS2_PLACEMENT_3D('',#662,#527,#528);
#464=AXIS2_PLACEMENT_3D('',#665,#530,#531);
#465=AXIS2_PLACEMENT_3D('',#666,#532,#533);
#466=AXIS2_PLACEMENT_3D('',#668,#534,#535);
#467=AXIS2_PLACEMENT_3D('',#669,#536,#537);
#468=AXIS2_PLACEMENT_3D('',#671,#538,#539);
#469=AXIS2_PLACEMENT_3D('',#674,#541,#542);
#470=AXIS2_PLACEMENT_3D('',#675,#543,#544);
#471=AXIS2_PLACEMENT_3D('',#677,#545,#546);
#472=AXIS2_PLACEMENT_3D('',#678,#547,#548);
#473=AXIS2_PLACEMENT_3D('',#680,#549,#550);
#474=AXIS2_PLACEMENT_3D('',#683,#552,#553);
#475=AXIS2_PLACEMENT_3D('',#684,#554,#555);
#476=AXIS2_PLACEMENT_3D('',#686,#556,#557);
#477=AXIS2_PLACEMENT_3D('',#687,#558,#559);
#478=AXIS2_PLACEMENT_3D('',#689,#560,#561);
#479=AXIS2_PLACEMENT_3D('',#692,#563,#564);
#480=AXIS2_PLACEMENT_3D('',#693,#565,#566);
#481=AXIS2_PLACEMENT_3D('',#695,#567,#568);
#482=AXIS2_PLACEMENT_3D('',#696,#569,#570);
#483=AXIS2_PLACEMENT_3D('',#698,#571,#572);
#484=AXIS2_PLACEMENT_3D('',#701,#574,#575);
#485=AXIS2_PLACEMENT_3D('',#702,#576,#577);
#486=AXIS2_PLACEMENT_3D('',#704,#578,#579);
#487=AXIS2_PLACEMENT_3D('',#705,#580,#581);
#488=AXIS2_PLACEMENT_3D('',#707,#582,#583);
#489=AXIS2_PLACEMENT_3D('',#710,#585,#586);
#490=AXIS2_PLACEMENT_3D('',#711,#587,#588);
#491=AXIS2_PLACEMENT_3D('',#713,#589,#590);
#492=AXIS2_PLACEMENT_3D('',#714,#591,#592);
#493=AXIS2_PLACEMENT_3D('',#716,#593,#594);
#494=AXIS2_PLACEMENT_3D('',#718,#596,#597);
#495=AXIS2_PLACEMENT_3D('',#721,#599,#600);
#496=AXIS2_PLACEMENT_3D('',#722,#601,#602);
#497=AXIS2_PLACEMENT_3D('',#725,#604,#605);
#498=AXIS2_PLACEMENT_3D('',#726,#606,#607);
#499=AXIS2_PLACEMENT_3D('',#728,#608,#609);
#500=AXIS2_PLACEMENT_3D('',#730,#611,#612);
#501=AXIS2_PLACEMENT_3D('',#732,#613,#614);
#502=AXIS2_PLACEMENT_3D('',#734,#616,#617);
#503=AXIS2_PLACEMENT_3D('',#736,#618,#619);
#504=AXIS2_PLACEMENT_3D('',#738,#621,#622);
#505=AXIS2_PLACEMENT_3D('',#741,#624,#625);
#506=AXIS2_PLACEMENT_3D('',#742,#626,#627);
#507=AXIS2_PLACEMENT_3D('',#751,#632,#633);
#508=AXIS2_PLACEMENT_3D('',#757,#637,#638);
#509=AXIS2_PLACEMENT_3D('',#763,#642,#643);
#510=AXIS2_PLACEMENT_3D('',#766,#646,#647);
#511=AXIS2_PLACEMENT_3D('',#767,#648,#649);
#512=DIRECTION('axis',(0.,0.,1.));
#513=DIRECTION('refdir',(1.,0.,0.));
#514=DIRECTION('center_axis',(0.,0.,1.));
#515=DIRECTION('ref_axis',(1.,0.,0.));
#516=DIRECTION('center_axis',(0.,0.,-1.));
#517=DIRECTION('ref_axis',(1.,0.,0.));
#518=DIRECTION('',(0.,0.,-1.));
#519=DIRECTION('center_axis',(0.,0.,-1.));
#520=DIRECTION('ref_axis',(1.,0.,0.));
#521=DIRECTION('center_axis',(0.,0.,-1.));
#522=DIRECTION('ref_axis',(-1.,0.,0.));
#523=DIRECTION('center_axis',(0.,0.,-1.));
#524=DIRECTION('ref_axis',(1.,0.,0.));
#525=DIRECTION('center_axis',(0.,0.,1.));
#526=DIRECTION('ref_axis',(1.,0.,0.));
#527=DIRECTION('center_axis',(0.,0.,-1.));
#528=DIRECTION('ref_axis',(1.,0.,0.));
#529=DIRECTION('',(0.,0.,-1.));
#530=DIRECTION('center_axis',(0.,0.,-1.));
#531=DIRECTION('ref_axis',(1.,0.,0.));
#532=DIRECTION('center_axis',(0.,0.,-1.));
#533=DIRECTION('ref_axis',(-1.,0.,0.));
#534=DIRECTION('center_axis',(0.,0.,-1.));
#535=DIRECTION('ref_axis',(1.,0.,0.));
#536=DIRECTION('center_axis',(0.,0.,1.));
#537=DIRECTION('ref_axis',(1.,0.,0.));
#538=DIRECTION('center_axis',(0.,0.,-1.));
#539=DIRECTION('ref_axis',(1.,0.,0.));
#540=DIRECTION('',(0.,0.,-1.));
#541=DIRECTION('center_axis',(0.,0.,-1.));
#542=DIRECTION('ref_axis',(1.,0.,0.));
#543=DIRECTION('center_axis',(0.,0.,-1.));
#544=DIRECTION('ref_axis',(-1.,0.,0.));
#545=DIRECTION('center_axis',(0.,0.,-1.));
#546=DIRECTION('ref_axis',(1.,0.,0.));
#547=DIRECTION('center_axis',(0.,0.,1.));
#548=DIRECTION('ref_axis',(1.,0.,0.));
#549=DIRECTION('center_axis',(0.,0.,1.));
#550=DIRECTION('ref_axis',(1.,0.,0.));
#551=DIRECTION('',(0.,0.,-1.));
#552=DIRECTION('center_axis',(0.,0.,-1.));
#553=DIRECTION('ref_axis',(1.,0.,0.));
#554=DIRECTION('center_axis',(0.,0.,1.));
#555=DIRECTION('ref_axis',(1.,0.,0.));
#556=DIRECTION('center_axis',(0.,0.,-1.));
#557=DIRECTION('ref_axis',(1.,0.,0.));
#558=DIRECTION('center_axis',(0.,0.,1.));
#559=DIRECTION('ref_axis',(1.,0.,0.));
#560=DIRECTION('center_axis',(0.,0.,1.));
#561=DIRECTION('ref_axis',(1.,0.,0.));
#562=DIRECTION('',(0.,0.,-1.));
#563=DIRECTION('center_axis',(0.,0.,-1.));
#564=DIRECTION('ref_axis',(1.,0.,0.));
#565=DIRECTION('center_axis',(0.,0.,1.));
#566=DIRECTION('ref_axis',(1.,0.,0.));
#567=DIRECTION('center_axis',(0.,0.,-1.));
#568=DIRECTION('ref_axis',(1.,0.,0.));
#569=DIRECTION('center_axis',(0.,0.,1.));
#570=DIRECTION('ref_axis',(1.,0.,0.));
#571=DIRECTION('center_axis',(0.,0.,1.));
#572=DIRECTION('ref_axis',(1.,0.,0.));
#573=DIRECTION('',(0.,0.,-1.));
#574=DIRECTION('center_axis',(0.,0.,-1.));
#575=DIRECTION('ref_axis',(1.,0.,0.));
#576=DIRECTION('center_axis',(0.,0.,1.));
#577=DIRECTION('ref_axis',(1.,0.,0.));
#578=DIRECTION('center_axis',(0.,0.,-1.));
#579=DIRECTION('ref_axis',(1.,0.,0.));
#580=DIRECTION('center_axis',(0.,0.,1.));
#581=DIRECTION('ref_axis',(1.,0.,0.));
#582=DIRECTION('center_axis',(0.,0.,1.));
#583=DIRECTION('ref_axis',(1.,0.,0.));
#584=DIRECTION('',(0.,0.,-1.));
#585=DIRECTION('center_axis',(0.,0.,-1.));
#586=DIRECTION('ref_axis',(1.,0.,0.));
#587=DIRECTION('center_axis',(0.,0.,1.));
#588=DIRECTION('ref_axis',(1.,0.,0.));
#589=DIRECTION('center_axis',(0.,0.,-1.));
#590=DIRECTION('ref_axis',(1.,0.,0.));
#591=DIRECTION('center_axis',(0.,0.,-1.));
#592=DIRECTION('ref_axis',(1.,0.,0.));
#593=DIRECTION('center_axis',(0.,0.,1.));
#594=DIRECTION('ref_axis',(1.,0.,0.));
#595=DIRECTION('',(0.,0.,1.));
#596=DIRECTION('center_axis',(0.,0.,-1.));
#597=DIRECTION('ref_axis',(1.,0.,0.));
#598=DIRECTION('',(0.,0.,1.));
#599=DIRECTION('center_axis',(0.,0.,-1.));
#600=DIRECTION('ref_axis',(1.,0.,0.));
#601=DIRECTION('center_axis',(0.,0.,-1.));
#602=DIRECTION('ref_axis',(1.,0.,0.));
#603=DIRECTION('',(0.,0.,1.));
#604=DIRECTION('center_axis',(0.,0.,-1.));
#605=DIRECTION('ref_axis',(1.,0.,0.));
#606=DIRECTION('center_axis',(0.,0.,-1.));
#607=DIRECTION('ref_axis',(1.,0.,0.));
#608=DIRECTION('center_axis',(0.,0.,1.));
#609=DIRECTION('ref_axis',(1.,0.,0.));
#610=DIRECTION('',(0.,0.,1.));
#611=DIRECTION('center_axis',(0.,0.,-1.));
#612=DIRECTION('ref_axis',(1.,0.,0.));
#613=DIRECTION('center_axis',(0.,0.,1.));
#614=DIRECTION('ref_axis',(1.,0.,0.));
#615=DIRECTION('',(0.,0.,1.));
#616=DIRECTION('center_axis',(0.,0.,-1.));
#617=DIRECTION('ref_axis',(1.,0.,0.));
#618=DIRECTION('center_axis',(0.,0.,1.));
#619=DIRECTION('ref_axis',(1.,0.,0.));
#620=DIRECTION('',(0.,0.,1.));
#621=DIRECTION('center_axis',(0.,0.,-1.));
#622=DIRECTION('ref_axis',(1.,0.,0.));
#623=DIRECTION('',(0.,0.,1.));
#624=DIRECTION('center_axis',(0.,0.,-1.));
#625=DIRECTION('ref_axis',(1.,0.,0.));
#626=DIRECTION('center_axis',(-1.,0.,0.));
#627=DIRECTION('ref_axis',(0.,1.,0.));
#628=DIRECTION('',(0.,1.,0.));
#629=DIRECTION('',(0.,0.,-1.));
#630=DIRECTION('',(0.,1.,0.));
#631=DIRECTION('',(0.,0.,-1.));
#632=DIRECTION('center_axis',(0.,-1.,0.));
#633=DIRECTION('ref_axis',(-1.,0.,0.));
#634=DIRECTION('',(-1.,0.,0.));
#635=DIRECTION('',(-1.,0.,0.));
#636=DIRECTION('',(0.,0.,-1.));
#637=DIRECTION('center_axis',(1.,0.,0.));
#638=DIRECTION('ref_axis',(0.,-1.,0.));
#639=DIRECTION('',(0.,-1.,0.));
#640=DIRECTION('',(0.,-1.,0.));
#641=DIRECTION('',(0.,0.,-1.));
#642=DIRECTION('center_axis',(0.,1.,0.));
#643=DIRECTION('ref_axis',(1.,0.,0.));
#644=DIRECTION('',(1.,0.,0.));
#645=DIRECTION('',(1.,0.,0.));
#646=DIRECTION('center_axis',(0.,0.,1.));
#647=DIRECTION('ref_axis',(1.,0.,0.));
#648=DIRECTION('center_axis',(0.,0.,1.));
#649=DIRECTION('ref_axis',(1.,0.,0.));
#650=CARTESIAN_POINT('',(0.,0.,0.));
#651=CARTESIAN_POINT('Origin',(-4.02455846426619E-16,-14.,-1.5));
#652=CARTESIAN_POINT('',(-1.65,-14.,-0.5));
#653=CARTESIAN_POINT('Origin',(-4.02455846426619E-16,-14.,-0.5));
#654=CARTESIAN_POINT('',(-1.65,-14.,-1.5));
#655=CARTESIAN_POINT('',(-1.65,-14.,-1.5));
#656=CARTESIAN_POINT('Origin',(-4.02455846426619E-16,-14.,-1.5));
#657=CARTESIAN_POINT('Origin',(0.,-4.9999999254942,-0.5));
#658=CARTESIAN_POINT('',(-2.99999983608723,-14.,-0.5));
#659=CARTESIAN_POINT('Origin',(-4.02455846426619E-16,-14.,-0.5));
#660=CARTESIAN_POINT('Origin',(-2.77555756156289E-16,-5.,-1.5));
#661=CARTESIAN_POINT('',(-1.65,-5.,-0.5));
#662=CARTESIAN_POINT('Origin',(-2.77555756156289E-16,-5.,-0.5));
#663=CARTESIAN_POINT('',(-1.65,-5.,-1.5));
#664=CARTESIAN_POINT('',(-1.65,-5.,-1.5));
#665=CARTESIAN_POINT('Origin',(-2.77555756156289E-16,-5.,-1.5));
#666=CARTESIAN_POINT('Origin',(0.,-4.9999999254942,-0.5));
#667=CARTESIAN_POINT('',(-3.00000011920929,-5.,-0.5));
#668=CARTESIAN_POINT('Origin',(-2.77555756156289E-16,-5.,-0.5));
#669=CARTESIAN_POINT('Origin',(-5.44040185852334E-16,4.,-1.5));
#670=CARTESIAN_POINT('',(-1.65,4.,-0.5));
#671=CARTESIAN_POINT('Origin',(-5.44040185852334E-16,4.,-0.5));
#672=CARTESIAN_POINT('',(-1.65,4.,-1.5));
#673=CARTESIAN_POINT('',(-1.65,4.,-1.5));
#674=CARTESIAN_POINT('Origin',(-5.44040185852334E-16,4.,-1.5));
#675=CARTESIAN_POINT('Origin',(0.,-4.9999999254942,-0.5));
#676=CARTESIAN_POINT('',(-2.99999998509884,4.,-0.5));
#677=CARTESIAN_POINT('Origin',(-5.44040185852334E-16,4.,-0.5));
#678=CARTESIAN_POINT('Origin',(-19.,-19.,0.));
#679=CARTESIAN_POINT('',(-22.,-19.,4.));
#680=CARTESIAN_POINT('Origin',(-19.,-19.,4.));
#681=CARTESIAN_POINT('',(-22.,-19.,0.));
#682=CARTESIAN_POINT('',(-22.,-19.,0.));
#683=CARTESIAN_POINT('Origin',(-19.,-19.,0.));
#684=CARTESIAN_POINT('Origin',(-19.,-19.,4.));
#685=CARTESIAN_POINT('',(-20.4,-19.,4.));
#686=CARTESIAN_POINT('Origin',(-19.,-19.,4.));
#687=CARTESIAN_POINT('Origin',(-19.,19.,0.));
#688=CARTESIAN_POINT('',(-22.,19.,4.));
#689=CARTESIAN_POINT('Origin',(-19.,19.,4.));
#690=CARTESIAN_POINT('',(-22.,19.,0.));
#691=CARTESIAN_POINT('',(-22.,19.,0.));
#692=CARTESIAN_POINT('Origin',(-19.,19.,0.));
#693=CARTESIAN_POINT('Origin',(-19.,19.,4.));
#694=CARTESIAN_POINT('',(-20.4,19.,4.));
#695=CARTESIAN_POINT('Origin',(-19.,19.,4.));
#696=CARTESIAN_POINT('Origin',(19.,-19.,0.));
#697=CARTESIAN_POINT('',(16.,-19.,4.));
#698=CARTESIAN_POINT('Origin',(19.,-19.,4.));
#699=CARTESIAN_POINT('',(16.,-19.,0.));
#700=CARTESIAN_POINT('',(16.,-19.,0.));
#701=CARTESIAN_POINT('Origin',(19.,-19.,0.));
#702=CARTESIAN_POINT('Origin',(19.,-19.,4.));
#703=CARTESIAN_POINT('',(17.6,-19.,4.));
#704=CARTESIAN_POINT('Origin',(19.,-19.,4.));
#705=CARTESIAN_POINT('Origin',(19.,19.,0.));
#706=CARTESIAN_POINT('',(16.,19.,4.));
#707=CARTESIAN_POINT('Origin',(19.,19.,4.));
#708=CARTESIAN_POINT('',(16.,19.,0.));
#709=CARTESIAN_POINT('',(16.,19.,0.));
#710=CARTESIAN_POINT('Origin',(19.,19.,0.));
#711=CARTESIAN_POINT('Origin',(19.,19.,4.));
#712=CARTESIAN_POINT('',(17.6,19.,4.));
#713=CARTESIAN_POINT('Origin',(19.,19.,4.));
#714=CARTESIAN_POINT('Origin',(19.,19.,0.));
#715=CARTESIAN_POINT('',(17.6,19.,-1.5));
#716=CARTESIAN_POINT('Origin',(19.,19.,-1.5));
#717=CARTESIAN_POINT('',(17.6,19.,0.));
#718=CARTESIAN_POINT('Origin',(-4.02455846426619E-16,-14.,0.));
#719=CARTESIAN_POINT('',(-2.99999983608723,-14.,0.));
#720=CARTESIAN_POINT('',(-2.99999983608723,-14.,0.));
#721=CARTESIAN_POINT('Origin',(-4.02455846426619E-16,-14.,0.));
#722=CARTESIAN_POINT('Origin',(-2.77555756156289E-16,-5.,0.));
#723=CARTESIAN_POINT('',(-3.00000011920929,-5.,0.));
#724=CARTESIAN_POINT('',(-3.00000011920929,-5.,0.));
#725=CARTESIAN_POINT('Origin',(-2.77555756156289E-16,-5.,0.));
#726=CARTESIAN_POINT('Origin',(19.,-19.,0.));
#727=CARTESIAN_POINT('',(17.6,-19.,-1.5));
#728=CARTESIAN_POINT('Origin',(19.,-19.,-1.5));
#729=CARTESIAN_POINT('',(17.6,-19.,0.));
#730=CARTESIAN_POINT('Origin',(-19.,19.,0.));
#731=CARTESIAN_POINT('',(-20.4,19.,-1.5));
#732=CARTESIAN_POINT('Origin',(-19.,19.,-1.5));
#733=CARTESIAN_POINT('',(-20.4,19.,0.));
#734=CARTESIAN_POINT('Origin',(-19.,-19.,0.));
#735=CARTESIAN_POINT('',(-20.4,-19.,-1.5));
#736=CARTESIAN_POINT('Origin',(-19.,-19.,-1.5));
#737=CARTESIAN_POINT('',(-20.4,-19.,0.));
#738=CARTESIAN_POINT('Origin',(-5.44040185852334E-16,4.,0.));
#739=CARTESIAN_POINT('',(-2.99999998509884,4.,0.));
#740=CARTESIAN_POINT('',(-2.99999998509884,4.,0.));
#741=CARTESIAN_POINT('Origin',(-5.44040185852334E-16,4.,0.));
#742=CARTESIAN_POINT('Origin',(-25.,-25.,0.));
#743=CARTESIAN_POINT('',(-25.,-25.,0.));
#744=CARTESIAN_POINT('',(-25.,25.,0.));
#745=CARTESIAN_POINT('',(-25.,-25.,0.));
#746=CARTESIAN_POINT('',(-25.,25.,-1.5));
#747=CARTESIAN_POINT('',(-25.,25.,0.));
#748=CARTESIAN_POINT('',(-25.,-25.,-1.5));
#749=CARTESIAN_POINT('',(-25.,-25.,-1.5));
#750=CARTESIAN_POINT('',(-25.,-25.,0.));
#751=CARTESIAN_POINT('Origin',(25.,-25.,0.));
#752=CARTESIAN_POINT('',(25.,-25.,0.));
#753=CARTESIAN_POINT('',(25.,-25.,0.));
#754=CARTESIAN_POINT('',(25.,-25.,-1.5));
#755=CARTESIAN_POINT('',(25.,-25.,-1.5));
#756=CARTESIAN_POINT('',(25.,-25.,0.));
#757=CARTESIAN_POINT('Origin',(25.,25.,0.));
#758=CARTESIAN_POINT('',(25.,25.,0.));
#759=CARTESIAN_POINT('',(25.,25.,0.));
#760=CARTESIAN_POINT('',(25.,25.,-1.5));
#761=CARTESIAN_POINT('',(25.,25.,-1.5));
#762=CARTESIAN_POINT('',(25.,25.,0.));
#763=CARTESIAN_POINT('Origin',(-25.,25.,0.));
#764=CARTESIAN_POINT('',(-25.,25.,0.));
#765=CARTESIAN_POINT('',(-25.,25.,-1.5));
#766=CARTESIAN_POINT('Origin',(0.,0.,0.));
#767=CARTESIAN_POINT('Origin',(0.,0.,-1.5));
#768=UNCERTAINTY_MEASURE_WITH_UNIT(LENGTH_MEASURE(0.01),#772,
'DISTANCE_ACCURACY_VALUE',
'Maximum model space distance between geometric entities at asserted c
onnectivities');
#769=UNCERTAINTY_MEASURE_WITH_UNIT(LENGTH_MEASURE(0.01),#772,
'DISTANCE_ACCURACY_VALUE',
'Maximum model space distance between geometric entities at asserted c
onnectivities');
#770=(
GEOMETRIC_REPRESENTATION_CONTEXT(3)
GLOBAL_UNCERTAINTY_ASSIGNED_CONTEXT((#768))
GLOBAL_UNIT_ASSIGNED_CONTEXT((#772,#774,#775))
REPRESENTATION_CONTEXT('','3D')
);
#771=(
GEOMETRIC_REPRESENTATION_CONTEXT(3)
GLOBAL_UNCERTAINTY_ASSIGNED_CONTEXT((#769))
GLOBAL_UNIT_ASSIGNED_CONTEXT((#772,#774,#775))
REPRESENTATION_CONTEXT('','3D')
);
#772=(
LENGTH_UNIT()
NAMED_UNIT(*)
SI_UNIT(.MILLI.,.METRE.)
);
#773=(
LENGTH_UNIT()
NAMED_UNIT(*)
SI_UNIT($,.METRE.)
);
#774=(
NAMED_UNIT(*)
PLANE_ANGLE_UNIT()
SI_UNIT($,.RADIAN.)
);
#775=(
NAMED_UNIT(*)
SI_UNIT($,.STERADIAN.)
SOLID_ANGLE_UNIT()
);
#776=SHAPE_DEFINITION_REPRESENTATION(#777,#778);
#777=PRODUCT_DEFINITION_SHAPE('',$,#780);
#778=SHAPE_REPRESENTATION('',(#456),#770);
#779=PRODUCT_DEFINITION_CONTEXT('part definition',#784,'design');
#780=PRODUCT_DEFINITION('Hutschiene Adapter L298',
'Hutschiene Adapter L298 v2',#781,#779);
#781=PRODUCT_DEFINITION_FORMATION('',$,#786);
#782=PRODUCT_RELATED_PRODUCT_CATEGORY('Hutschiene Adapter L298 v2',
'Hutschiene Adapter L298 v2',(#786));
#783=APPLICATION_PROTOCOL_DEFINITION('international standard',
'automotive_design',2009,#784);
#784=APPLICATION_CONTEXT(
'Core Data for Automotive Mechanical Design Process');
#785=PRODUCT_CONTEXT('part definition',#784,'mechanical');
#786=PRODUCT('Hutschiene Adapter L298','Hutschiene Adapter L298 v2',$,(#785));
#787=PRESENTATION_STYLE_ASSIGNMENT((#788));
#788=SURFACE_STYLE_USAGE(.BOTH.,#789);
#789=SURFACE_SIDE_STYLE('',(#790));
#790=SURFACE_STYLE_FILL_AREA(#791);
#791=FILL_AREA_STYLE('Stahl - satiniert',(#792));
#792=FILL_AREA_STYLE_COLOUR('Stahl - satiniert',#793);
#793=COLOUR_RGB('Stahl - satiniert',0.627450980392157,0.627450980392157,
0.627450980392157);
ENDSEC;
END-ISO-10303-21;
