ISO-10303-21;
HEADER;
/* Generated by software containing ST-Developer
 * from STEP Tools, Inc. (www.steptools.com) 
 */

FILE_DESCRIPTION(
/* description */ (''),
/* implementation_level */ '2;1');

FILE_NAME(
/* name */ 'TL-PA4010P_v5.0_homeplug_din_rail_adapter.step',
/* time_stamp */ '2026-06-02T09:48:00+02:00',
/* author */ (''),
/* organization */ (''),
/* preprocessor_version */ 'ST-DEVELOPER v20.1',
/* originating_system */ 'Autodesk Translation Framework v15.8.0.0',
/* authorisation */ '');

FILE_SCHEMA (('AUTOMOTIVE_DESIGN { 1 0 10303 214 3 1 1 }'));
ENDSEC;

DATA;
#10=MECHANICAL_DESIGN_GEOMETRIC_PRESENTATION_REPRESENTATION('',(#13),#1917);
#11=SHAPE_REPRESENTATION_RELATIONSHIP('SRR','None',#1924,#12);
#12=ADVANCED_BREP_SHAPE_REPRESENTATION('',(#14),#1916);
#13=STYLED_ITEM('',(#1933),#14);
#14=MANIFOLD_SOLID_BREP('K\X\F6rper1',#1165);
#15=FACE_BOUND('',#142,.T.);
#16=FACE_BOUND('',#145,.T.);
#17=FACE_BOUND('',#148,.T.);
#18=FACE_BOUND('',#174,.T.);
#19=FACE_BOUND('',#175,.T.);
#20=FACE_BOUND('',#176,.T.);
#21=FACE_BOUND('',#177,.T.);
#22=FACE_BOUND('',#178,.T.);
#23=FACE_BOUND('',#179,.T.);
#24=FACE_BOUND('',#180,.T.);
#25=FACE_BOUND('',#199,.T.);
#26=FACE_BOUND('',#200,.T.);
#27=FACE_BOUND('',#201,.T.);
#28=FACE_BOUND('',#202,.T.);
#29=FACE_BOUND('',#203,.T.);
#30=FACE_BOUND('',#205,.T.);
#31=FACE_BOUND('',#207,.T.);
#32=PLANE('',#1182);
#33=PLANE('',#1187);
#34=PLANE('',#1192);
#35=PLANE('',#1200);
#36=PLANE('',#1204);
#37=PLANE('',#1208);
#38=PLANE('',#1209);
#39=PLANE('',#1210);
#40=PLANE('',#1211);
#41=PLANE('',#1212);
#42=PLANE('',#1213);
#43=PLANE('',#1214);
#44=PLANE('',#1215);
#45=PLANE('',#1216);
#46=PLANE('',#1217);
#47=PLANE('',#1218);
#48=PLANE('',#1219);
#49=PLANE('',#1220);
#50=PLANE('',#1221);
#51=PLANE('',#1222);
#52=PLANE('',#1223);
#53=PLANE('',#1224);
#54=PLANE('',#1225);
#55=PLANE('',#1233);
#56=PLANE('',#1234);
#57=PLANE('',#1235);
#58=PLANE('',#1236);
#59=PLANE('',#1237);
#60=PLANE('',#1238);
#61=PLANE('',#1239);
#62=PLANE('',#1240);
#63=PLANE('',#1241);
#64=PLANE('',#1242);
#65=PLANE('',#1243);
#66=PLANE('',#1244);
#67=PLANE('',#1245);
#68=PLANE('',#1246);
#69=PLANE('',#1247);
#70=PLANE('',#1248);
#71=PLANE('',#1249);
#72=PLANE('',#1250);
#73=PLANE('',#1256);
#74=PLANE('',#1259);
#75=PLANE('',#1264);
#76=PLANE('',#1266);
#77=PLANE('',#1268);
#78=PLANE('',#1270);
#79=FACE_OUTER_BOUND('',#140,.T.);
#80=FACE_OUTER_BOUND('',#141,.T.);
#81=FACE_OUTER_BOUND('',#143,.T.);
#82=FACE_OUTER_BOUND('',#144,.T.);
#83=FACE_OUTER_BOUND('',#146,.T.);
#84=FACE_OUTER_BOUND('',#147,.T.);
#85=FACE_OUTER_BOUND('',#149,.T.);
#86=FACE_OUTER_BOUND('',#150,.T.);
#87=FACE_OUTER_BOUND('',#151,.T.);
#88=FACE_OUTER_BOUND('',#152,.T.);
#89=FACE_OUTER_BOUND('',#153,.T.);
#90=FACE_OUTER_BOUND('',#154,.T.);
#91=FACE_OUTER_BOUND('',#155,.T.);
#92=FACE_OUTER_BOUND('',#156,.T.);
#93=FACE_OUTER_BOUND('',#157,.T.);
#94=FACE_OUTER_BOUND('',#158,.T.);
#95=FACE_OUTER_BOUND('',#159,.T.);
#96=FACE_OUTER_BOUND('',#160,.T.);
#97=FACE_OUTER_BOUND('',#161,.T.);
#98=FACE_OUTER_BOUND('',#162,.T.);
#99=FACE_OUTER_BOUND('',#163,.T.);
#100=FACE_OUTER_BOUND('',#164,.T.);
#101=FACE_OUTER_BOUND('',#165,.T.);
#102=FACE_OUTER_BOUND('',#166,.T.);
#103=FACE_OUTER_BOUND('',#167,.T.);
#104=FACE_OUTER_BOUND('',#168,.T.);
#105=FACE_OUTER_BOUND('',#169,.T.);
#106=FACE_OUTER_BOUND('',#170,.T.);
#107=FACE_OUTER_BOUND('',#171,.T.);
#108=FACE_OUTER_BOUND('',#172,.T.);
#109=FACE_OUTER_BOUND('',#173,.T.);
#110=FACE_OUTER_BOUND('',#181,.T.);
#111=FACE_OUTER_BOUND('',#182,.T.);
#112=FACE_OUTER_BOUND('',#183,.T.);
#113=FACE_OUTER_BOUND('',#184,.T.);
#114=FACE_OUTER_BOUND('',#185,.T.);
#115=FACE_OUTER_BOUND('',#186,.T.);
#116=FACE_OUTER_BOUND('',#187,.T.);
#117=FACE_OUTER_BOUND('',#188,.T.);
#118=FACE_OUTER_BOUND('',#189,.T.);
#119=FACE_OUTER_BOUND('',#190,.T.);
#120=FACE_OUTER_BOUND('',#191,.T.);
#121=FACE_OUTER_BOUND('',#192,.T.);
#122=FACE_OUTER_BOUND('',#193,.T.);
#123=FACE_OUTER_BOUND('',#194,.T.);
#124=FACE_OUTER_BOUND('',#195,.T.);
#125=FACE_OUTER_BOUND('',#196,.T.);
#126=FACE_OUTER_BOUND('',#197,.T.);
#127=FACE_OUTER_BOUND('',#198,.T.);
#128=FACE_OUTER_BOUND('',#204,.T.);
#129=FACE_OUTER_BOUND('',#206,.T.);
#130=FACE_OUTER_BOUND('',#208,.T.);
#131=FACE_OUTER_BOUND('',#209,.T.);
#132=FACE_OUTER_BOUND('',#210,.T.);
#133=FACE_OUTER_BOUND('',#211,.T.);
#134=FACE_OUTER_BOUND('',#212,.T.);
#135=FACE_OUTER_BOUND('',#213,.T.);
#136=FACE_OUTER_BOUND('',#214,.T.);
#137=FACE_OUTER_BOUND('',#215,.T.);
#138=FACE_OUTER_BOUND('',#216,.T.);
#139=FACE_OUTER_BOUND('',#217,.T.);
#140=EDGE_LOOP('',(#770,#771,#772,#773));
#141=EDGE_LOOP('',(#774));
#142=EDGE_LOOP('',(#775));
#143=EDGE_LOOP('',(#776,#777,#778,#779));
#144=EDGE_LOOP('',(#780));
#145=EDGE_LOOP('',(#781));
#146=EDGE_LOOP('',(#782,#783,#784,#785));
#147=EDGE_LOOP('',(#786));
#148=EDGE_LOOP('',(#787));
#149=EDGE_LOOP('',(#788,#789,#790,#791));
#150=EDGE_LOOP('',(#792,#793,#794,#795));
#151=EDGE_LOOP('',(#796,#797,#798,#799));
#152=EDGE_LOOP('',(#800,#801,#802,#803));
#153=EDGE_LOOP('',(#804,#805,#806,#807));
#154=EDGE_LOOP('',(#808,#809,#810,#811));
#155=EDGE_LOOP('',(#812,#813,#814,#815));
#156=EDGE_LOOP('',(#816,#817,#818,#819));
#157=EDGE_LOOP('',(#820,#821,#822,#823));
#158=EDGE_LOOP('',(#824,#825,#826,#827));
#159=EDGE_LOOP('',(#828,#829,#830,#831));
#160=EDGE_LOOP('',(#832,#833,#834,#835,#836,#837,#838,#839));
#161=EDGE_LOOP('',(#840,#841,#842,#843,#844));
#162=EDGE_LOOP('',(#845,#846,#847,#848));
#163=EDGE_LOOP('',(#849,#850,#851,#852));
#164=EDGE_LOOP('',(#853,#854,#855,#856,#857));
#165=EDGE_LOOP('',(#858,#859,#860,#861,#862,#863,#864,#865));
#166=EDGE_LOOP('',(#866,#867,#868,#869));
#167=EDGE_LOOP('',(#870,#871,#872,#873));
#168=EDGE_LOOP('',(#874,#875,#876,#877));
#169=EDGE_LOOP('',(#878,#879,#880,#881));
#170=EDGE_LOOP('',(#882,#883,#884,#885,#886));
#171=EDGE_LOOP('',(#887,#888,#889,#890));
#172=EDGE_LOOP('',(#891,#892,#893,#894,#895,#896));
#173=EDGE_LOOP('',(#897,#898,#899,#900,#901,#902,#903,#904,#905,#906,#907,
#908,#909,#910,#911,#912,#913));
#174=EDGE_LOOP('',(#914,#915,#916,#917));
#175=EDGE_LOOP('',(#918));
#176=EDGE_LOOP('',(#919));
#177=EDGE_LOOP('',(#920));
#178=EDGE_LOOP('',(#921,#922,#923,#924));
#179=EDGE_LOOP('',(#925));
#180=EDGE_LOOP('',(#926));
#181=EDGE_LOOP('',(#927,#928,#929,#930));
#182=EDGE_LOOP('',(#931,#932,#933,#934));
#183=EDGE_LOOP('',(#935,#936,#937,#938,#939,#940,#941,#942));
#184=EDGE_LOOP('',(#943,#944,#945,#946));
#185=EDGE_LOOP('',(#947,#948,#949,#950));
#186=EDGE_LOOP('',(#951,#952,#953,#954,#955));
#187=EDGE_LOOP('',(#956,#957,#958,#959));
#188=EDGE_LOOP('',(#960,#961,#962,#963,#964,#965,#966,#967));
#189=EDGE_LOOP('',(#968,#969,#970,#971,#972));
#190=EDGE_LOOP('',(#973,#974,#975,#976));
#191=EDGE_LOOP('',(#977,#978,#979,#980));
#192=EDGE_LOOP('',(#981,#982,#983,#984));
#193=EDGE_LOOP('',(#985,#986,#987,#988));
#194=EDGE_LOOP('',(#989,#990,#991,#992));
#195=EDGE_LOOP('',(#993,#994,#995,#996,#997));
#196=EDGE_LOOP('',(#998,#999,#1000,#1001));
#197=EDGE_LOOP('',(#1002,#1003,#1004,#1005,#1006,#1007));
#198=EDGE_LOOP('',(#1008,#1009,#1010,#1011,#1012,#1013,#1014,#1015,#1016,
#1017,#1018,#1019,#1020,#1021,#1022,#1023,#1024,#1025,#1026));
#199=EDGE_LOOP('',(#1027,#1028,#1029,#1030));
#200=EDGE_LOOP('',(#1031));
#201=EDGE_LOOP('',(#1032));
#202=EDGE_LOOP('',(#1033));
#203=EDGE_LOOP('',(#1034,#1035,#1036,#1037));
#204=EDGE_LOOP('',(#1038));
#205=EDGE_LOOP('',(#1039));
#206=EDGE_LOOP('',(#1040));
#207=EDGE_LOOP('',(#1041));
#208=EDGE_LOOP('',(#1042,#1043,#1044,#1045));
#209=EDGE_LOOP('',(#1046,#1047,#1048,#1049));
#210=EDGE_LOOP('',(#1050,#1051,#1052,#1053));
#211=EDGE_LOOP('',(#1054,#1055,#1056,#1057,#1058,#1059,#1060,#1061));
#212=EDGE_LOOP('',(#1062,#1063,#1064,#1065));
#213=EDGE_LOOP('',(#1066,#1067,#1068,#1069,#1070,#1071,#1072,#1073));
#214=EDGE_LOOP('',(#1074,#1075,#1076,#1077));
#215=EDGE_LOOP('',(#1078,#1079,#1080,#1081));
#216=EDGE_LOOP('',(#1082,#1083,#1084,#1085));
#217=EDGE_LOOP('',(#1086,#1087,#1088,#1089));
#218=LINE('',#1593,#346);
#219=LINE('',#1602,#347);
#220=LINE('',#1611,#348);
#221=LINE('',#1618,#349);
#222=LINE('',#1622,#350);
#223=LINE('',#1626,#351);
#224=LINE('',#1631,#352);
#225=LINE('',#1633,#353);
#226=LINE('',#1635,#354);
#227=LINE('',#1636,#355);
#228=LINE('',#1642,#356);
#229=LINE('',#1645,#357);
#230=LINE('',#1647,#358);
#231=LINE('',#1648,#359);
#232=LINE('',#1655,#360);
#233=LINE('',#1657,#361);
#234=LINE('',#1659,#362);
#235=LINE('',#1660,#363);
#236=LINE('',#1664,#364);
#237=LINE('',#1666,#365);
#238=LINE('',#1668,#366);
#239=LINE('',#1669,#367);
#240=LINE('',#1672,#368);
#241=LINE('',#1674,#369);
#242=LINE('',#1675,#370);
#243=LINE('',#1678,#371);
#244=LINE('',#1680,#372);
#245=LINE('',#1681,#373);
#246=LINE('',#1685,#374);
#247=LINE('',#1687,#375);
#248=LINE('',#1689,#376);
#249=LINE('',#1691,#377);
#250=LINE('',#1693,#378);
#251=LINE('',#1695,#379);
#252=LINE('',#1697,#380);
#253=LINE('',#1698,#381);
#254=LINE('',#1701,#382);
#255=LINE('',#1703,#383);
#256=LINE('',#1705,#384);
#257=LINE('',#1706,#385);
#258=LINE('',#1709,#386);
#259=LINE('',#1711,#387);
#260=LINE('',#1712,#388);
#261=LINE('',#1714,#389);
#262=LINE('',#1715,#390);
#263=LINE('',#1717,#391);
#264=LINE('',#1720,#392);
#265=LINE('',#1722,#393);
#266=LINE('',#1724,#394);
#267=LINE('',#1726,#395);
#268=LINE('',#1728,#396);
#269=LINE('',#1730,#397);
#270=LINE('',#1732,#398);
#271=LINE('',#1733,#399);
#272=LINE('',#1735,#400);
#273=LINE('',#1736,#401);
#274=LINE('',#1738,#402);
#275=LINE('',#1740,#403);
#276=LINE('',#1742,#404);
#277=LINE('',#1745,#405);
#278=LINE('',#1746,#406);
#279=LINE('',#1749,#407);
#280=LINE('',#1750,#408);
#281=LINE('',#1752,#409);
#282=LINE('',#1753,#410);
#283=LINE('',#1758,#411);
#284=LINE('',#1764,#412);
#285=LINE('',#1766,#413);
#286=LINE('',#1768,#414);
#287=LINE('',#1770,#415);
#288=LINE('',#1772,#416);
#289=LINE('',#1773,#417);
#290=LINE('',#1776,#418);
#291=LINE('',#1780,#419);
#292=LINE('',#1789,#420);
#293=LINE('',#1790,#421);
#294=LINE('',#1793,#422);
#295=LINE('',#1795,#423);
#296=LINE('',#1797,#424);
#297=LINE('',#1799,#425);
#298=LINE('',#1801,#426);
#299=LINE('',#1803,#427);
#300=LINE('',#1805,#428);
#301=LINE('',#1806,#429);
#302=LINE('',#1809,#430);
#303=LINE('',#1811,#431);
#304=LINE('',#1812,#432);
#305=LINE('',#1815,#433);
#306=LINE('',#1817,#434);
#307=LINE('',#1819,#435);
#308=LINE('',#1820,#436);
#309=LINE('',#1823,#437);
#310=LINE('',#1824,#438);
#311=LINE('',#1827,#439);
#312=LINE('',#1828,#440);
#313=LINE('',#1832,#441);
#314=LINE('',#1833,#442);
#315=LINE('',#1835,#443);
#316=LINE('',#1837,#444);
#317=LINE('',#1839,#445);
#318=LINE('',#1841,#446);
#319=LINE('',#1842,#447);
#320=LINE('',#1844,#448);
#321=LINE('',#1847,#449);
#322=LINE('',#1848,#450);
#323=LINE('',#1850,#451);
#324=LINE('',#1851,#452);
#325=LINE('',#1853,#453);
#326=LINE('',#1855,#454);
#327=LINE('',#1857,#455);
#328=LINE('',#1860,#456);
#329=LINE('',#1861,#457);
#330=LINE('',#1864,#458);
#331=LINE('',#1865,#459);
#332=LINE('',#1867,#460);
#333=LINE('',#1872,#461);
#334=LINE('',#1878,#462);
#335=LINE('',#1882,#463);
#336=LINE('',#1895,#464);
#337=LINE('',#1897,#465);
#338=LINE('',#1900,#466);
#339=LINE('',#1901,#467);
#340=LINE('',#1903,#468);
#341=LINE('',#1905,#469);
#342=LINE('',#1907,#470);
#343=LINE('',#1908,#471);
#344=LINE('',#1910,#472);
#345=LINE('',#1912,#473);
#346=VECTOR('',#1278,3.);
#347=VECTOR('',#1289,3.);
#348=VECTOR('',#1300,3.);
#349=VECTOR('',#1309,1.65);
#350=VECTOR('',#1314,1.65);
#351=VECTOR('',#1319,1.65);
#352=VECTOR('',#1324,10.);
#353=VECTOR('',#1325,10.);
#354=VECTOR('',#1326,10.);
#355=VECTOR('',#1327,10.);
#356=VECTOR('',#1334,10.);
#357=VECTOR('',#1337,10.);
#358=VECTOR('',#1338,10.);
#359=VECTOR('',#1339,10.);
#360=VECTOR('',#1348,10.);
#361=VECTOR('',#1349,10.);
#362=VECTOR('',#1350,10.);
#363=VECTOR('',#1351,10.);
#364=VECTOR('',#1354,10.);
#365=VECTOR('',#1355,10.);
#366=VECTOR('',#1356,10.);
#367=VECTOR('',#1357,10.);
#368=VECTOR('',#1360,10.);
#369=VECTOR('',#1361,10.);
#370=VECTOR('',#1362,10.);
#371=VECTOR('',#1365,10.);
#372=VECTOR('',#1366,10.);
#373=VECTOR('',#1367,10.);
#374=VECTOR('',#1370,10.);
#375=VECTOR('',#1371,10.);
#376=VECTOR('',#1372,10.);
#377=VECTOR('',#1373,10.);
#378=VECTOR('',#1374,10.);
#379=VECTOR('',#1375,10.);
#380=VECTOR('',#1376,10.);
#381=VECTOR('',#1377,10.);
#382=VECTOR('',#1380,10.);
#383=VECTOR('',#1381,10.);
#384=VECTOR('',#1382,10.);
#385=VECTOR('',#1383,10.);
#386=VECTOR('',#1386,10.);
#387=VECTOR('',#1387,10.);
#388=VECTOR('',#1388,10.);
#389=VECTOR('',#1391,10.);
#390=VECTOR('',#1392,10.);
#391=VECTOR('',#1395,10.);
#392=VECTOR('',#1398,10.);
#393=VECTOR('',#1399,10.);
#394=VECTOR('',#1400,10.);
#395=VECTOR('',#1401,10.);
#396=VECTOR('',#1402,10.);
#397=VECTOR('',#1403,10.);
#398=VECTOR('',#1404,10.);
#399=VECTOR('',#1405,10.);
#400=VECTOR('',#1408,10.);
#401=VECTOR('',#1409,10.);
#402=VECTOR('',#1412,10.);
#403=VECTOR('',#1415,10.);
#404=VECTOR('',#1418,10.);
#405=VECTOR('',#1421,10.);
#406=VECTOR('',#1422,10.);
#407=VECTOR('',#1425,10.);
#408=VECTOR('',#1426,10.);
#409=VECTOR('',#1429,10.);
#410=VECTOR('',#1430,10.);
#411=VECTOR('',#1435,10.);
#412=VECTOR('',#1440,10.);
#413=VECTOR('',#1441,10.);
#414=VECTOR('',#1442,10.);
#415=VECTOR('',#1443,10.);
#416=VECTOR('',#1444,10.);
#417=VECTOR('',#1445,10.);
#418=VECTOR('',#1446,10.);
#419=VECTOR('',#1449,10.);
#420=VECTOR('',#1460,10.);
#421=VECTOR('',#1461,10.);
#422=VECTOR('',#1464,10.);
#423=VECTOR('',#1465,10.);
#424=VECTOR('',#1466,10.);
#425=VECTOR('',#1467,10.);
#426=VECTOR('',#1468,10.);
#427=VECTOR('',#1469,10.);
#428=VECTOR('',#1470,10.);
#429=VECTOR('',#1471,10.);
#430=VECTOR('',#1474,10.);
#431=VECTOR('',#1475,10.);
#432=VECTOR('',#1476,10.);
#433=VECTOR('',#1479,10.);
#434=VECTOR('',#1480,10.);
#435=VECTOR('',#1481,10.);
#436=VECTOR('',#1482,10.);
#437=VECTOR('',#1485,10.);
#438=VECTOR('',#1486,10.);
#439=VECTOR('',#1489,10.);
#440=VECTOR('',#1490,10.);
#441=VECTOR('',#1493,10.);
#442=VECTOR('',#1494,10.);
#443=VECTOR('',#1495,10.);
#444=VECTOR('',#1496,10.);
#445=VECTOR('',#1497,10.);
#446=VECTOR('',#1498,10.);
#447=VECTOR('',#1499,10.);
#448=VECTOR('',#1502,10.);
#449=VECTOR('',#1505,10.);
#450=VECTOR('',#1506,10.);
#451=VECTOR('',#1509,10.);
#452=VECTOR('',#1510,10.);
#453=VECTOR('',#1513,10.);
#454=VECTOR('',#1516,10.);
#455=VECTOR('',#1519,10.);
#456=VECTOR('',#1522,10.);
#457=VECTOR('',#1523,10.);
#458=VECTOR('',#1526,10.);
#459=VECTOR('',#1527,10.);
#460=VECTOR('',#1530,10.);
#461=VECTOR('',#1535,10.);
#462=VECTOR('',#1540,10.);
#463=VECTOR('',#1543,10.);
#464=VECTOR('',#1560,1.4);
#465=VECTOR('',#1563,1.4);
#466=VECTOR('',#1568,3.4);
#467=VECTOR('',#1569,10.);
#468=VECTOR('',#1572,10.);
#469=VECTOR('',#1575,3.4);
#470=VECTOR('',#1578,10.);
#471=VECTOR('',#1579,10.);
#472=VECTOR('',#1582,10.);
#473=VECTOR('',#1585,10.);
#474=CIRCLE('',#1180,3.);
#475=CIRCLE('',#1181,3.);
#476=CIRCLE('',#1183,1.65);
#477=CIRCLE('',#1185,3.);
#478=CIRCLE('',#1186,3.);
#479=CIRCLE('',#1188,1.65);
#480=CIRCLE('',#1190,3.);
#481=CIRCLE('',#1191,3.);
#482=CIRCLE('',#1193,1.65);
#483=CIRCLE('',#1195,1.65);
#484=CIRCLE('',#1197,1.65);
#485=CIRCLE('',#1199,1.65);
#486=CIRCLE('',#1202,5.);
#487=CIRCLE('',#1203,5.);
#488=CIRCLE('',#1206,5.);
#489=CIRCLE('',#1207,5.);
#490=CIRCLE('',#1226,3.4);
#491=CIRCLE('',#1227,3.4);
#492=CIRCLE('',#1228,3.4);
#493=CIRCLE('',#1229,5.);
#494=CIRCLE('',#1230,5.);
#495=CIRCLE('',#1231,1.4);
#496=CIRCLE('',#1232,1.4);
#497=CIRCLE('',#1251,3.4);
#498=CIRCLE('',#1252,3.4);
#499=CIRCLE('',#1253,3.4);
#500=CIRCLE('',#1254,5.);
#501=CIRCLE('',#1255,5.);
#502=CIRCLE('',#1257,3.4);
#503=CIRCLE('',#1258,1.4);
#504=CIRCLE('',#1260,3.4);
#505=CIRCLE('',#1261,1.4);
#506=VERTEX_POINT('',#1590);
#507=VERTEX_POINT('',#1592);
#508=VERTEX_POINT('',#1596);
#509=VERTEX_POINT('',#1599);
#510=VERTEX_POINT('',#1601);
#511=VERTEX_POINT('',#1605);
#512=VERTEX_POINT('',#1608);
#513=VERTEX_POINT('',#1610);
#514=VERTEX_POINT('',#1614);
#515=VERTEX_POINT('',#1617);
#516=VERTEX_POINT('',#1621);
#517=VERTEX_POINT('',#1625);
#518=VERTEX_POINT('',#1629);
#519=VERTEX_POINT('',#1630);
#520=VERTEX_POINT('',#1632);
#521=VERTEX_POINT('',#1634);
#522=VERTEX_POINT('',#1638);
#523=VERTEX_POINT('',#1640);
#524=VERTEX_POINT('',#1644);
#525=VERTEX_POINT('',#1646);
#526=VERTEX_POINT('',#1653);
#527=VERTEX_POINT('',#1654);
#528=VERTEX_POINT('',#1656);
#529=VERTEX_POINT('',#1658);
#530=VERTEX_POINT('',#1662);
#531=VERTEX_POINT('',#1663);
#532=VERTEX_POINT('',#1665);
#533=VERTEX_POINT('',#1667);
#534=VERTEX_POINT('',#1671);
#535=VERTEX_POINT('',#1673);
#536=VERTEX_POINT('',#1677);
#537=VERTEX_POINT('',#1679);
#538=VERTEX_POINT('',#1683);
#539=VERTEX_POINT('',#1684);
#540=VERTEX_POINT('',#1686);
#541=VERTEX_POINT('',#1688);
#542=VERTEX_POINT('',#1690);
#543=VERTEX_POINT('',#1692);
#544=VERTEX_POINT('',#1694);
#545=VERTEX_POINT('',#1696);
#546=VERTEX_POINT('',#1700);
#547=VERTEX_POINT('',#1702);
#548=VERTEX_POINT('',#1704);
#549=VERTEX_POINT('',#1708);
#550=VERTEX_POINT('',#1710);
#551=VERTEX_POINT('',#1719);
#552=VERTEX_POINT('',#1721);
#553=VERTEX_POINT('',#1723);
#554=VERTEX_POINT('',#1725);
#555=VERTEX_POINT('',#1727);
#556=VERTEX_POINT('',#1729);
#557=VERTEX_POINT('',#1731);
#558=VERTEX_POINT('',#1744);
#559=VERTEX_POINT('',#1748);
#560=VERTEX_POINT('',#1755);
#561=VERTEX_POINT('',#1757);
#562=VERTEX_POINT('',#1759);
#563=VERTEX_POINT('',#1761);
#564=VERTEX_POINT('',#1763);
#565=VERTEX_POINT('',#1765);
#566=VERTEX_POINT('',#1767);
#567=VERTEX_POINT('',#1769);
#568=VERTEX_POINT('',#1771);
#569=VERTEX_POINT('',#1774);
#570=VERTEX_POINT('',#1775);
#571=VERTEX_POINT('',#1777);
#572=VERTEX_POINT('',#1779);
#573=VERTEX_POINT('',#1782);
#574=VERTEX_POINT('',#1784);
#575=VERTEX_POINT('',#1788);
#576=VERTEX_POINT('',#1792);
#577=VERTEX_POINT('',#1794);
#578=VERTEX_POINT('',#1796);
#579=VERTEX_POINT('',#1798);
#580=VERTEX_POINT('',#1800);
#581=VERTEX_POINT('',#1802);
#582=VERTEX_POINT('',#1804);
#583=VERTEX_POINT('',#1808);
#584=VERTEX_POINT('',#1810);
#585=VERTEX_POINT('',#1814);
#586=VERTEX_POINT('',#1816);
#587=VERTEX_POINT('',#1818);
#588=VERTEX_POINT('',#1822);
#589=VERTEX_POINT('',#1826);
#590=VERTEX_POINT('',#1830);
#591=VERTEX_POINT('',#1831);
#592=VERTEX_POINT('',#1834);
#593=VERTEX_POINT('',#1836);
#594=VERTEX_POINT('',#1838);
#595=VERTEX_POINT('',#1840);
#596=VERTEX_POINT('',#1846);
#597=VERTEX_POINT('',#1859);
#598=VERTEX_POINT('',#1863);
#599=VERTEX_POINT('',#1869);
#600=VERTEX_POINT('',#1871);
#601=VERTEX_POINT('',#1873);
#602=VERTEX_POINT('',#1876);
#603=VERTEX_POINT('',#1877);
#604=VERTEX_POINT('',#1879);
#605=VERTEX_POINT('',#1881);
#606=VERTEX_POINT('',#1885);
#607=VERTEX_POINT('',#1887);
#608=VERTEX_POINT('',#1890);
#609=VERTEX_POINT('',#1892);
#610=EDGE_CURVE('',#506,#506,#474,.T.);
#611=EDGE_CURVE('',#506,#507,#218,.T.);
#612=EDGE_CURVE('',#507,#507,#475,.T.);
#613=EDGE_CURVE('',#508,#508,#476,.T.);
#614=EDGE_CURVE('',#509,#509,#477,.T.);
#615=EDGE_CURVE('',#509,#510,#219,.T.);
#616=EDGE_CURVE('',#510,#510,#478,.T.);
#617=EDGE_CURVE('',#511,#511,#479,.T.);
#618=EDGE_CURVE('',#512,#512,#480,.T.);
#619=EDGE_CURVE('',#512,#513,#220,.T.);
#620=EDGE_CURVE('',#513,#513,#481,.T.);
#621=EDGE_CURVE('',#514,#514,#482,.T.);
#622=EDGE_CURVE('',#511,#515,#221,.T.);
#623=EDGE_CURVE('',#515,#515,#483,.T.);
#624=EDGE_CURVE('',#508,#516,#222,.T.);
#625=EDGE_CURVE('',#516,#516,#484,.T.);
#626=EDGE_CURVE('',#514,#517,#223,.T.);
#627=EDGE_CURVE('',#517,#517,#485,.T.);
#628=EDGE_CURVE('',#518,#519,#224,.T.);
#629=EDGE_CURVE('',#520,#518,#225,.T.);
#630=EDGE_CURVE('',#521,#520,#226,.T.);
#631=EDGE_CURVE('',#521,#519,#227,.T.);
#632=EDGE_CURVE('',#519,#522,#486,.T.);
#633=EDGE_CURVE('',#523,#521,#487,.T.);
#634=EDGE_CURVE('',#523,#522,#228,.T.);
#635=EDGE_CURVE('',#522,#524,#229,.T.);
#636=EDGE_CURVE('',#525,#523,#230,.T.);
#637=EDGE_CURVE('',#525,#524,#231,.T.);
#638=EDGE_CURVE('',#524,#518,#488,.T.);
#639=EDGE_CURVE('',#520,#525,#489,.T.);
#640=EDGE_CURVE('',#526,#527,#232,.T.);
#641=EDGE_CURVE('',#528,#527,#233,.T.);
#642=EDGE_CURVE('',#528,#529,#234,.T.);
#643=EDGE_CURVE('',#526,#529,#235,.T.);
#644=EDGE_CURVE('',#530,#531,#236,.T.);
#645=EDGE_CURVE('',#530,#532,#237,.T.);
#646=EDGE_CURVE('',#532,#533,#238,.T.);
#647=EDGE_CURVE('',#531,#533,#239,.T.);
#648=EDGE_CURVE('',#534,#527,#240,.T.);
#649=EDGE_CURVE('',#534,#535,#241,.T.);
#650=EDGE_CURVE('',#528,#535,#242,.T.);
#651=EDGE_CURVE('',#536,#533,#243,.T.);
#652=EDGE_CURVE('',#536,#537,#244,.T.);
#653=EDGE_CURVE('',#531,#537,#245,.T.);
#654=EDGE_CURVE('',#538,#539,#246,.T.);
#655=EDGE_CURVE('',#540,#539,#247,.T.);
#656=EDGE_CURVE('',#541,#540,#248,.T.);
#657=EDGE_CURVE('',#542,#541,#249,.T.);
#658=EDGE_CURVE('',#543,#542,#250,.T.);
#659=EDGE_CURVE('',#544,#543,#251,.T.);
#660=EDGE_CURVE('',#544,#545,#252,.T.);
#661=EDGE_CURVE('',#545,#538,#253,.T.);
#662=EDGE_CURVE('',#546,#530,#254,.T.);
#663=EDGE_CURVE('',#546,#547,#255,.T.);
#664=EDGE_CURVE('',#547,#548,#256,.T.);
#665=EDGE_CURVE('',#532,#548,#257,.T.);
#666=EDGE_CURVE('',#549,#546,#258,.T.);
#667=EDGE_CURVE('',#550,#549,#259,.T.);
#668=EDGE_CURVE('',#550,#547,#260,.T.);
#669=EDGE_CURVE('',#544,#532,#261,.T.);
#670=EDGE_CURVE('',#548,#545,#262,.T.);
#671=EDGE_CURVE('',#538,#550,#263,.T.);
#672=EDGE_CURVE('',#529,#551,#264,.T.);
#673=EDGE_CURVE('',#552,#551,#265,.T.);
#674=EDGE_CURVE('',#553,#552,#266,.T.);
#675=EDGE_CURVE('',#554,#553,#267,.T.);
#676=EDGE_CURVE('',#555,#554,#268,.T.);
#677=EDGE_CURVE('',#556,#555,#269,.T.);
#678=EDGE_CURVE('',#557,#556,#270,.T.);
#679=EDGE_CURVE('',#529,#557,#271,.T.);
#680=EDGE_CURVE('',#543,#551,#272,.T.);
#681=EDGE_CURVE('',#542,#552,#273,.T.);
#682=EDGE_CURVE('',#541,#553,#274,.T.);
#683=EDGE_CURVE('',#540,#554,#275,.T.);
#684=EDGE_CURVE('',#539,#555,#276,.T.);
#685=EDGE_CURVE('',#558,#538,#277,.T.);
#686=EDGE_CURVE('',#558,#556,#278,.T.);
#687=EDGE_CURVE('',#559,#558,#279,.T.);
#688=EDGE_CURVE('',#559,#557,#280,.T.);
#689=EDGE_CURVE('',#559,#550,#281,.T.);
#690=EDGE_CURVE('',#549,#526,#282,.T.);
#691=EDGE_CURVE('',#537,#560,#490,.T.);
#692=EDGE_CURVE('',#560,#561,#283,.T.);
#693=EDGE_CURVE('',#561,#562,#491,.T.);
#694=EDGE_CURVE('',#562,#563,#492,.T.);
#695=EDGE_CURVE('',#563,#564,#284,.T.);
#696=EDGE_CURVE('',#565,#564,#285,.T.);
#697=EDGE_CURVE('',#566,#565,#286,.T.);
#698=EDGE_CURVE('',#567,#566,#287,.T.);
#699=EDGE_CURVE('',#567,#568,#288,.T.);
#700=EDGE_CURVE('',#568,#534,#289,.T.);
#701=EDGE_CURVE('',#569,#570,#290,.T.);
#702=EDGE_CURVE('',#571,#569,#493,.T.);
#703=EDGE_CURVE('',#572,#571,#291,.T.);
#704=EDGE_CURVE('',#570,#572,#494,.T.);
#705=EDGE_CURVE('',#573,#573,#495,.T.);
#706=EDGE_CURVE('',#574,#574,#496,.T.);
#707=EDGE_CURVE('',#568,#575,#292,.T.);
#708=EDGE_CURVE('',#535,#575,#293,.T.);
#709=EDGE_CURVE('',#575,#576,#294,.T.);
#710=EDGE_CURVE('',#575,#577,#295,.T.);
#711=EDGE_CURVE('',#577,#578,#296,.T.);
#712=EDGE_CURVE('',#578,#579,#297,.T.);
#713=EDGE_CURVE('',#579,#580,#298,.T.);
#714=EDGE_CURVE('',#580,#581,#299,.T.);
#715=EDGE_CURVE('',#581,#582,#300,.T.);
#716=EDGE_CURVE('',#582,#576,#301,.T.);
#717=EDGE_CURVE('',#583,#564,#302,.T.);
#718=EDGE_CURVE('',#584,#583,#303,.T.);
#719=EDGE_CURVE('',#565,#584,#304,.T.);
#720=EDGE_CURVE('',#584,#585,#305,.T.);
#721=EDGE_CURVE('',#585,#586,#306,.T.);
#722=EDGE_CURVE('',#587,#586,#307,.T.);
#723=EDGE_CURVE('',#584,#587,#308,.T.);
#724=EDGE_CURVE('',#588,#587,#309,.T.);
#725=EDGE_CURVE('',#566,#588,#310,.T.);
#726=EDGE_CURVE('',#589,#588,#311,.T.);
#727=EDGE_CURVE('',#589,#567,#312,.T.);
#728=EDGE_CURVE('',#590,#591,#313,.T.);
#729=EDGE_CURVE('',#586,#590,#314,.T.);
#730=EDGE_CURVE('',#592,#585,#315,.T.);
#731=EDGE_CURVE('',#592,#593,#316,.T.);
#732=EDGE_CURVE('',#593,#594,#317,.T.);
#733=EDGE_CURVE('',#594,#595,#318,.T.);
#734=EDGE_CURVE('',#595,#591,#319,.T.);
#735=EDGE_CURVE('',#589,#590,#320,.T.);
#736=EDGE_CURVE('',#596,#563,#321,.T.);
#737=EDGE_CURVE('',#583,#596,#322,.T.);
#738=EDGE_CURVE('',#576,#592,#323,.T.);
#739=EDGE_CURVE('',#593,#582,#324,.T.);
#740=EDGE_CURVE('',#594,#581,#325,.T.);
#741=EDGE_CURVE('',#595,#580,#326,.T.);
#742=EDGE_CURVE('',#591,#579,#327,.T.);
#743=EDGE_CURVE('',#597,#590,#328,.T.);
#744=EDGE_CURVE('',#597,#578,#329,.T.);
#745=EDGE_CURVE('',#598,#597,#330,.T.);
#746=EDGE_CURVE('',#598,#577,#331,.T.);
#747=EDGE_CURVE('',#598,#589,#332,.T.);
#748=EDGE_CURVE('',#596,#599,#497,.T.);
#749=EDGE_CURVE('',#599,#600,#333,.T.);
#750=EDGE_CURVE('',#600,#601,#498,.T.);
#751=EDGE_CURVE('',#601,#536,#499,.T.);
#752=EDGE_CURVE('',#602,#603,#334,.T.);
#753=EDGE_CURVE('',#604,#602,#500,.T.);
#754=EDGE_CURVE('',#605,#604,#335,.T.);
#755=EDGE_CURVE('',#603,#605,#501,.T.);
#756=EDGE_CURVE('',#606,#606,#502,.T.);
#757=EDGE_CURVE('',#607,#607,#503,.T.);
#758=EDGE_CURVE('',#608,#608,#504,.T.);
#759=EDGE_CURVE('',#609,#609,#505,.T.);
#760=EDGE_CURVE('',#573,#607,#336,.T.);
#761=EDGE_CURVE('',#574,#609,#337,.T.);
#762=EDGE_CURVE('',#562,#608,#338,.T.);
#763=EDGE_CURVE('',#599,#561,#339,.T.);
#764=EDGE_CURVE('',#600,#560,#340,.T.);
#765=EDGE_CURVE('',#601,#606,#341,.T.);
#766=EDGE_CURVE('',#602,#570,#342,.T.);
#767=EDGE_CURVE('',#603,#569,#343,.T.);
#768=EDGE_CURVE('',#604,#572,#344,.T.);
#769=EDGE_CURVE('',#605,#571,#345,.T.);
#770=ORIENTED_EDGE('',*,*,#610,.F.);
#771=ORIENTED_EDGE('',*,*,#611,.T.);
#772=ORIENTED_EDGE('',*,*,#612,.T.);
#773=ORIENTED_EDGE('',*,*,#611,.F.);
#774=ORIENTED_EDGE('',*,*,#612,.F.);
#775=ORIENTED_EDGE('',*,*,#613,.F.);
#776=ORIENTED_EDGE('',*,*,#614,.F.);
#777=ORIENTED_EDGE('',*,*,#615,.T.);
#778=ORIENTED_EDGE('',*,*,#616,.T.);
#779=ORIENTED_EDGE('',*,*,#615,.F.);
#780=ORIENTED_EDGE('',*,*,#616,.F.);
#781=ORIENTED_EDGE('',*,*,#617,.F.);
#782=ORIENTED_EDGE('',*,*,#618,.F.);
#783=ORIENTED_EDGE('',*,*,#619,.T.);
#784=ORIENTED_EDGE('',*,*,#620,.T.);
#785=ORIENTED_EDGE('',*,*,#619,.F.);
#786=ORIENTED_EDGE('',*,*,#620,.F.);
#787=ORIENTED_EDGE('',*,*,#621,.F.);
#788=ORIENTED_EDGE('',*,*,#617,.T.);
#789=ORIENTED_EDGE('',*,*,#622,.T.);
#790=ORIENTED_EDGE('',*,*,#623,.F.);
#791=ORIENTED_EDGE('',*,*,#622,.F.);
#792=ORIENTED_EDGE('',*,*,#613,.T.);
#793=ORIENTED_EDGE('',*,*,#624,.T.);
#794=ORIENTED_EDGE('',*,*,#625,.F.);
#795=ORIENTED_EDGE('',*,*,#624,.F.);
#796=ORIENTED_EDGE('',*,*,#621,.T.);
#797=ORIENTED_EDGE('',*,*,#626,.T.);
#798=ORIENTED_EDGE('',*,*,#627,.F.);
#799=ORIENTED_EDGE('',*,*,#626,.F.);
#800=ORIENTED_EDGE('',*,*,#628,.F.);
#801=ORIENTED_EDGE('',*,*,#629,.F.);
#802=ORIENTED_EDGE('',*,*,#630,.F.);
#803=ORIENTED_EDGE('',*,*,#631,.T.);
#804=ORIENTED_EDGE('',*,*,#632,.F.);
#805=ORIENTED_EDGE('',*,*,#631,.F.);
#806=ORIENTED_EDGE('',*,*,#633,.F.);
#807=ORIENTED_EDGE('',*,*,#634,.T.);
#808=ORIENTED_EDGE('',*,*,#635,.F.);
#809=ORIENTED_EDGE('',*,*,#634,.F.);
#810=ORIENTED_EDGE('',*,*,#636,.F.);
#811=ORIENTED_EDGE('',*,*,#637,.T.);
#812=ORIENTED_EDGE('',*,*,#638,.F.);
#813=ORIENTED_EDGE('',*,*,#637,.F.);
#814=ORIENTED_EDGE('',*,*,#639,.F.);
#815=ORIENTED_EDGE('',*,*,#629,.T.);
#816=ORIENTED_EDGE('',*,*,#640,.T.);
#817=ORIENTED_EDGE('',*,*,#641,.F.);
#818=ORIENTED_EDGE('',*,*,#642,.T.);
#819=ORIENTED_EDGE('',*,*,#643,.F.);
#820=ORIENTED_EDGE('',*,*,#644,.F.);
#821=ORIENTED_EDGE('',*,*,#645,.T.);
#822=ORIENTED_EDGE('',*,*,#646,.T.);
#823=ORIENTED_EDGE('',*,*,#647,.F.);
#824=ORIENTED_EDGE('',*,*,#641,.T.);
#825=ORIENTED_EDGE('',*,*,#648,.F.);
#826=ORIENTED_EDGE('',*,*,#649,.T.);
#827=ORIENTED_EDGE('',*,*,#650,.F.);
#828=ORIENTED_EDGE('',*,*,#647,.T.);
#829=ORIENTED_EDGE('',*,*,#651,.F.);
#830=ORIENTED_EDGE('',*,*,#652,.T.);
#831=ORIENTED_EDGE('',*,*,#653,.F.);
#832=ORIENTED_EDGE('',*,*,#654,.T.);
#833=ORIENTED_EDGE('',*,*,#655,.F.);
#834=ORIENTED_EDGE('',*,*,#656,.F.);
#835=ORIENTED_EDGE('',*,*,#657,.F.);
#836=ORIENTED_EDGE('',*,*,#658,.F.);
#837=ORIENTED_EDGE('',*,*,#659,.F.);
#838=ORIENTED_EDGE('',*,*,#660,.T.);
#839=ORIENTED_EDGE('',*,*,#661,.T.);
#840=ORIENTED_EDGE('',*,*,#662,.F.);
#841=ORIENTED_EDGE('',*,*,#663,.T.);
#842=ORIENTED_EDGE('',*,*,#664,.T.);
#843=ORIENTED_EDGE('',*,*,#665,.F.);
#844=ORIENTED_EDGE('',*,*,#645,.F.);
#845=ORIENTED_EDGE('',*,*,#666,.F.);
#846=ORIENTED_EDGE('',*,*,#667,.F.);
#847=ORIENTED_EDGE('',*,*,#668,.T.);
#848=ORIENTED_EDGE('',*,*,#663,.F.);
#849=ORIENTED_EDGE('',*,*,#669,.T.);
#850=ORIENTED_EDGE('',*,*,#665,.T.);
#851=ORIENTED_EDGE('',*,*,#670,.T.);
#852=ORIENTED_EDGE('',*,*,#660,.F.);
#853=ORIENTED_EDGE('',*,*,#670,.F.);
#854=ORIENTED_EDGE('',*,*,#664,.F.);
#855=ORIENTED_EDGE('',*,*,#668,.F.);
#856=ORIENTED_EDGE('',*,*,#671,.F.);
#857=ORIENTED_EDGE('',*,*,#661,.F.);
#858=ORIENTED_EDGE('',*,*,#672,.T.);
#859=ORIENTED_EDGE('',*,*,#673,.F.);
#860=ORIENTED_EDGE('',*,*,#674,.F.);
#861=ORIENTED_EDGE('',*,*,#675,.F.);
#862=ORIENTED_EDGE('',*,*,#676,.F.);
#863=ORIENTED_EDGE('',*,*,#677,.F.);
#864=ORIENTED_EDGE('',*,*,#678,.F.);
#865=ORIENTED_EDGE('',*,*,#679,.F.);
#866=ORIENTED_EDGE('',*,*,#680,.F.);
#867=ORIENTED_EDGE('',*,*,#658,.T.);
#868=ORIENTED_EDGE('',*,*,#681,.T.);
#869=ORIENTED_EDGE('',*,*,#673,.T.);
#870=ORIENTED_EDGE('',*,*,#657,.T.);
#871=ORIENTED_EDGE('',*,*,#682,.T.);
#872=ORIENTED_EDGE('',*,*,#674,.T.);
#873=ORIENTED_EDGE('',*,*,#681,.F.);
#874=ORIENTED_EDGE('',*,*,#656,.T.);
#875=ORIENTED_EDGE('',*,*,#683,.T.);
#876=ORIENTED_EDGE('',*,*,#675,.T.);
#877=ORIENTED_EDGE('',*,*,#682,.F.);
#878=ORIENTED_EDGE('',*,*,#655,.T.);
#879=ORIENTED_EDGE('',*,*,#684,.T.);
#880=ORIENTED_EDGE('',*,*,#676,.T.);
#881=ORIENTED_EDGE('',*,*,#683,.F.);
#882=ORIENTED_EDGE('',*,*,#685,.F.);
#883=ORIENTED_EDGE('',*,*,#686,.T.);
#884=ORIENTED_EDGE('',*,*,#677,.T.);
#885=ORIENTED_EDGE('',*,*,#684,.F.);
#886=ORIENTED_EDGE('',*,*,#654,.F.);
#887=ORIENTED_EDGE('',*,*,#687,.F.);
#888=ORIENTED_EDGE('',*,*,#688,.T.);
#889=ORIENTED_EDGE('',*,*,#678,.T.);
#890=ORIENTED_EDGE('',*,*,#686,.F.);
#891=ORIENTED_EDGE('',*,*,#689,.T.);
#892=ORIENTED_EDGE('',*,*,#667,.T.);
#893=ORIENTED_EDGE('',*,*,#690,.T.);
#894=ORIENTED_EDGE('',*,*,#643,.T.);
#895=ORIENTED_EDGE('',*,*,#679,.T.);
#896=ORIENTED_EDGE('',*,*,#688,.F.);
#897=ORIENTED_EDGE('',*,*,#653,.T.);
#898=ORIENTED_EDGE('',*,*,#691,.T.);
#899=ORIENTED_EDGE('',*,*,#692,.T.);
#900=ORIENTED_EDGE('',*,*,#693,.T.);
#901=ORIENTED_EDGE('',*,*,#694,.T.);
#902=ORIENTED_EDGE('',*,*,#695,.T.);
#903=ORIENTED_EDGE('',*,*,#696,.F.);
#904=ORIENTED_EDGE('',*,*,#697,.F.);
#905=ORIENTED_EDGE('',*,*,#698,.F.);
#906=ORIENTED_EDGE('',*,*,#699,.T.);
#907=ORIENTED_EDGE('',*,*,#700,.T.);
#908=ORIENTED_EDGE('',*,*,#648,.T.);
#909=ORIENTED_EDGE('',*,*,#640,.F.);
#910=ORIENTED_EDGE('',*,*,#690,.F.);
#911=ORIENTED_EDGE('',*,*,#666,.T.);
#912=ORIENTED_EDGE('',*,*,#662,.T.);
#913=ORIENTED_EDGE('',*,*,#644,.T.);
#914=ORIENTED_EDGE('',*,*,#701,.F.);
#915=ORIENTED_EDGE('',*,*,#702,.F.);
#916=ORIENTED_EDGE('',*,*,#703,.F.);
#917=ORIENTED_EDGE('',*,*,#704,.F.);
#918=ORIENTED_EDGE('',*,*,#623,.T.);
#919=ORIENTED_EDGE('',*,*,#625,.T.);
#920=ORIENTED_EDGE('',*,*,#627,.T.);
#921=ORIENTED_EDGE('',*,*,#628,.T.);
#922=ORIENTED_EDGE('',*,*,#632,.T.);
#923=ORIENTED_EDGE('',*,*,#635,.T.);
#924=ORIENTED_EDGE('',*,*,#638,.T.);
#925=ORIENTED_EDGE('',*,*,#705,.T.);
#926=ORIENTED_EDGE('',*,*,#706,.T.);
#927=ORIENTED_EDGE('',*,*,#671,.T.);
#928=ORIENTED_EDGE('',*,*,#689,.F.);
#929=ORIENTED_EDGE('',*,*,#687,.T.);
#930=ORIENTED_EDGE('',*,*,#685,.T.);
#931=ORIENTED_EDGE('',*,*,#700,.F.);
#932=ORIENTED_EDGE('',*,*,#707,.T.);
#933=ORIENTED_EDGE('',*,*,#708,.F.);
#934=ORIENTED_EDGE('',*,*,#649,.F.);
#935=ORIENTED_EDGE('',*,*,#709,.F.);
#936=ORIENTED_EDGE('',*,*,#710,.T.);
#937=ORIENTED_EDGE('',*,*,#711,.T.);
#938=ORIENTED_EDGE('',*,*,#712,.T.);
#939=ORIENTED_EDGE('',*,*,#713,.T.);
#940=ORIENTED_EDGE('',*,*,#714,.T.);
#941=ORIENTED_EDGE('',*,*,#715,.T.);
#942=ORIENTED_EDGE('',*,*,#716,.T.);
#943=ORIENTED_EDGE('',*,*,#696,.T.);
#944=ORIENTED_EDGE('',*,*,#717,.F.);
#945=ORIENTED_EDGE('',*,*,#718,.F.);
#946=ORIENTED_EDGE('',*,*,#719,.F.);
#947=ORIENTED_EDGE('',*,*,#720,.T.);
#948=ORIENTED_EDGE('',*,*,#721,.T.);
#949=ORIENTED_EDGE('',*,*,#722,.F.);
#950=ORIENTED_EDGE('',*,*,#723,.F.);
#951=ORIENTED_EDGE('',*,*,#697,.T.);
#952=ORIENTED_EDGE('',*,*,#719,.T.);
#953=ORIENTED_EDGE('',*,*,#723,.T.);
#954=ORIENTED_EDGE('',*,*,#724,.F.);
#955=ORIENTED_EDGE('',*,*,#725,.F.);
#956=ORIENTED_EDGE('',*,*,#698,.T.);
#957=ORIENTED_EDGE('',*,*,#725,.T.);
#958=ORIENTED_EDGE('',*,*,#726,.F.);
#959=ORIENTED_EDGE('',*,*,#727,.T.);
#960=ORIENTED_EDGE('',*,*,#728,.F.);
#961=ORIENTED_EDGE('',*,*,#729,.F.);
#962=ORIENTED_EDGE('',*,*,#721,.F.);
#963=ORIENTED_EDGE('',*,*,#730,.F.);
#964=ORIENTED_EDGE('',*,*,#731,.T.);
#965=ORIENTED_EDGE('',*,*,#732,.T.);
#966=ORIENTED_EDGE('',*,*,#733,.T.);
#967=ORIENTED_EDGE('',*,*,#734,.T.);
#968=ORIENTED_EDGE('',*,*,#722,.T.);
#969=ORIENTED_EDGE('',*,*,#729,.T.);
#970=ORIENTED_EDGE('',*,*,#735,.F.);
#971=ORIENTED_EDGE('',*,*,#726,.T.);
#972=ORIENTED_EDGE('',*,*,#724,.T.);
#973=ORIENTED_EDGE('',*,*,#717,.T.);
#974=ORIENTED_EDGE('',*,*,#695,.F.);
#975=ORIENTED_EDGE('',*,*,#736,.F.);
#976=ORIENTED_EDGE('',*,*,#737,.F.);
#977=ORIENTED_EDGE('',*,*,#738,.F.);
#978=ORIENTED_EDGE('',*,*,#716,.F.);
#979=ORIENTED_EDGE('',*,*,#739,.F.);
#980=ORIENTED_EDGE('',*,*,#731,.F.);
#981=ORIENTED_EDGE('',*,*,#732,.F.);
#982=ORIENTED_EDGE('',*,*,#739,.T.);
#983=ORIENTED_EDGE('',*,*,#715,.F.);
#984=ORIENTED_EDGE('',*,*,#740,.F.);
#985=ORIENTED_EDGE('',*,*,#733,.F.);
#986=ORIENTED_EDGE('',*,*,#740,.T.);
#987=ORIENTED_EDGE('',*,*,#714,.F.);
#988=ORIENTED_EDGE('',*,*,#741,.F.);
#989=ORIENTED_EDGE('',*,*,#734,.F.);
#990=ORIENTED_EDGE('',*,*,#741,.T.);
#991=ORIENTED_EDGE('',*,*,#713,.F.);
#992=ORIENTED_EDGE('',*,*,#742,.F.);
#993=ORIENTED_EDGE('',*,*,#743,.T.);
#994=ORIENTED_EDGE('',*,*,#728,.T.);
#995=ORIENTED_EDGE('',*,*,#742,.T.);
#996=ORIENTED_EDGE('',*,*,#712,.F.);
#997=ORIENTED_EDGE('',*,*,#744,.F.);
#998=ORIENTED_EDGE('',*,*,#745,.T.);
#999=ORIENTED_EDGE('',*,*,#744,.T.);
#1000=ORIENTED_EDGE('',*,*,#711,.F.);
#1001=ORIENTED_EDGE('',*,*,#746,.F.);
#1002=ORIENTED_EDGE('',*,*,#747,.F.);
#1003=ORIENTED_EDGE('',*,*,#746,.T.);
#1004=ORIENTED_EDGE('',*,*,#710,.F.);
#1005=ORIENTED_EDGE('',*,*,#707,.F.);
#1006=ORIENTED_EDGE('',*,*,#699,.F.);
#1007=ORIENTED_EDGE('',*,*,#727,.F.);
#1008=ORIENTED_EDGE('',*,*,#672,.F.);
#1009=ORIENTED_EDGE('',*,*,#642,.F.);
#1010=ORIENTED_EDGE('',*,*,#650,.T.);
#1011=ORIENTED_EDGE('',*,*,#708,.T.);
#1012=ORIENTED_EDGE('',*,*,#709,.T.);
#1013=ORIENTED_EDGE('',*,*,#738,.T.);
#1014=ORIENTED_EDGE('',*,*,#730,.T.);
#1015=ORIENTED_EDGE('',*,*,#720,.F.);
#1016=ORIENTED_EDGE('',*,*,#718,.T.);
#1017=ORIENTED_EDGE('',*,*,#737,.T.);
#1018=ORIENTED_EDGE('',*,*,#748,.T.);
#1019=ORIENTED_EDGE('',*,*,#749,.T.);
#1020=ORIENTED_EDGE('',*,*,#750,.T.);
#1021=ORIENTED_EDGE('',*,*,#751,.T.);
#1022=ORIENTED_EDGE('',*,*,#651,.T.);
#1023=ORIENTED_EDGE('',*,*,#646,.F.);
#1024=ORIENTED_EDGE('',*,*,#669,.F.);
#1025=ORIENTED_EDGE('',*,*,#659,.T.);
#1026=ORIENTED_EDGE('',*,*,#680,.T.);
#1027=ORIENTED_EDGE('',*,*,#752,.F.);
#1028=ORIENTED_EDGE('',*,*,#753,.F.);
#1029=ORIENTED_EDGE('',*,*,#754,.F.);
#1030=ORIENTED_EDGE('',*,*,#755,.F.);
#1031=ORIENTED_EDGE('',*,*,#610,.T.);
#1032=ORIENTED_EDGE('',*,*,#614,.T.);
#1033=ORIENTED_EDGE('',*,*,#618,.T.);
#1034=ORIENTED_EDGE('',*,*,#630,.T.);
#1035=ORIENTED_EDGE('',*,*,#639,.T.);
#1036=ORIENTED_EDGE('',*,*,#636,.T.);
#1037=ORIENTED_EDGE('',*,*,#633,.T.);
#1038=ORIENTED_EDGE('',*,*,#756,.T.);
#1039=ORIENTED_EDGE('',*,*,#757,.T.);
#1040=ORIENTED_EDGE('',*,*,#758,.T.);
#1041=ORIENTED_EDGE('',*,*,#759,.T.);
#1042=ORIENTED_EDGE('',*,*,#705,.F.);
#1043=ORIENTED_EDGE('',*,*,#760,.T.);
#1044=ORIENTED_EDGE('',*,*,#757,.F.);
#1045=ORIENTED_EDGE('',*,*,#760,.F.);
#1046=ORIENTED_EDGE('',*,*,#706,.F.);
#1047=ORIENTED_EDGE('',*,*,#761,.T.);
#1048=ORIENTED_EDGE('',*,*,#759,.F.);
#1049=ORIENTED_EDGE('',*,*,#761,.F.);
#1050=ORIENTED_EDGE('',*,*,#735,.T.);
#1051=ORIENTED_EDGE('',*,*,#743,.F.);
#1052=ORIENTED_EDGE('',*,*,#745,.F.);
#1053=ORIENTED_EDGE('',*,*,#747,.T.);
#1054=ORIENTED_EDGE('',*,*,#736,.T.);
#1055=ORIENTED_EDGE('',*,*,#694,.F.);
#1056=ORIENTED_EDGE('',*,*,#762,.T.);
#1057=ORIENTED_EDGE('',*,*,#758,.F.);
#1058=ORIENTED_EDGE('',*,*,#762,.F.);
#1059=ORIENTED_EDGE('',*,*,#693,.F.);
#1060=ORIENTED_EDGE('',*,*,#763,.F.);
#1061=ORIENTED_EDGE('',*,*,#748,.F.);
#1062=ORIENTED_EDGE('',*,*,#749,.F.);
#1063=ORIENTED_EDGE('',*,*,#763,.T.);
#1064=ORIENTED_EDGE('',*,*,#692,.F.);
#1065=ORIENTED_EDGE('',*,*,#764,.F.);
#1066=ORIENTED_EDGE('',*,*,#764,.T.);
#1067=ORIENTED_EDGE('',*,*,#691,.F.);
#1068=ORIENTED_EDGE('',*,*,#652,.F.);
#1069=ORIENTED_EDGE('',*,*,#751,.F.);
#1070=ORIENTED_EDGE('',*,*,#765,.T.);
#1071=ORIENTED_EDGE('',*,*,#756,.F.);
#1072=ORIENTED_EDGE('',*,*,#765,.F.);
#1073=ORIENTED_EDGE('',*,*,#750,.F.);
#1074=ORIENTED_EDGE('',*,*,#701,.T.);
#1075=ORIENTED_EDGE('',*,*,#766,.F.);
#1076=ORIENTED_EDGE('',*,*,#752,.T.);
#1077=ORIENTED_EDGE('',*,*,#767,.T.);
#1078=ORIENTED_EDGE('',*,*,#704,.T.);
#1079=ORIENTED_EDGE('',*,*,#768,.F.);
#1080=ORIENTED_EDGE('',*,*,#753,.T.);
#1081=ORIENTED_EDGE('',*,*,#766,.T.);
#1082=ORIENTED_EDGE('',*,*,#703,.T.);
#1083=ORIENTED_EDGE('',*,*,#769,.F.);
#1084=ORIENTED_EDGE('',*,*,#754,.T.);
#1085=ORIENTED_EDGE('',*,*,#768,.T.);
#1086=ORIENTED_EDGE('',*,*,#702,.T.);
#1087=ORIENTED_EDGE('',*,*,#767,.F.);
#1088=ORIENTED_EDGE('',*,*,#755,.T.);
#1089=ORIENTED_EDGE('',*,*,#769,.T.);
#1090=CYLINDRICAL_SURFACE('',#1179,3.);
#1091=CYLINDRICAL_SURFACE('',#1184,3.);
#1092=CYLINDRICAL_SURFACE('',#1189,3.);
#1093=CYLINDRICAL_SURFACE('',#1194,1.65);
#1094=CYLINDRICAL_SURFACE('',#1196,1.65);
#1095=CYLINDRICAL_SURFACE('',#1198,1.65);
#1096=CYLINDRICAL_SURFACE('',#1201,5.);
#1097=CYLINDRICAL_SURFACE('',#1205,5.);
#1098=CYLINDRICAL_SURFACE('',#1262,1.4);
#1099=CYLINDRICAL_SURFACE('',#1263,1.4);
#1100=CYLINDRICAL_SURFACE('',#1265,3.4);
#1101=CYLINDRICAL_SURFACE('',#1267,3.4);
#1102=CYLINDRICAL_SURFACE('',#1269,5.);
#1103=CYLINDRICAL_SURFACE('',#1271,5.);
#1104=ADVANCED_FACE('',(#79),#1090,.F.);
#1105=ADVANCED_FACE('',(#80,#15),#32,.T.);
#1106=ADVANCED_FACE('',(#81),#1091,.F.);
#1107=ADVANCED_FACE('',(#82,#16),#33,.T.);
#1108=ADVANCED_FACE('',(#83),#1092,.F.);
#1109=ADVANCED_FACE('',(#84,#17),#34,.T.);
#1110=ADVANCED_FACE('',(#85),#1093,.F.);
#1111=ADVANCED_FACE('',(#86),#1094,.F.);
#1112=ADVANCED_FACE('',(#87),#1095,.F.);
#1113=ADVANCED_FACE('',(#88),#35,.F.);
#1114=ADVANCED_FACE('',(#89),#1096,.F.);
#1115=ADVANCED_FACE('',(#90),#36,.F.);
#1116=ADVANCED_FACE('',(#91),#1097,.F.);
#1117=ADVANCED_FACE('',(#92),#37,.F.);
#1118=ADVANCED_FACE('',(#93),#38,.F.);
#1119=ADVANCED_FACE('',(#94),#39,.T.);
#1120=ADVANCED_FACE('',(#95),#40,.T.);
#1121=ADVANCED_FACE('',(#96),#41,.F.);
#1122=ADVANCED_FACE('',(#97),#42,.F.);
#1123=ADVANCED_FACE('',(#98),#43,.F.);
#1124=ADVANCED_FACE('',(#99),#44,.F.);
#1125=ADVANCED_FACE('',(#100),#45,.F.);
#1126=ADVANCED_FACE('',(#101),#46,.F.);
#1127=ADVANCED_FACE('',(#102),#47,.F.);
#1128=ADVANCED_FACE('',(#103),#48,.F.);
#1129=ADVANCED_FACE('',(#104),#49,.F.);
#1130=ADVANCED_FACE('',(#105),#50,.F.);
#1131=ADVANCED_FACE('',(#106),#51,.F.);
#1132=ADVANCED_FACE('',(#107),#52,.F.);
#1133=ADVANCED_FACE('',(#108),#53,.F.);
#1134=ADVANCED_FACE('',(#109,#18,#19,#20,#21,#22,#23,#24),#54,.F.);
#1135=ADVANCED_FACE('',(#110),#55,.T.);
#1136=ADVANCED_FACE('',(#111),#56,.T.);
#1137=ADVANCED_FACE('',(#112),#57,.T.);
#1138=ADVANCED_FACE('',(#113),#58,.T.);
#1139=ADVANCED_FACE('',(#114),#59,.T.);
#1140=ADVANCED_FACE('',(#115),#60,.T.);
#1141=ADVANCED_FACE('',(#116),#61,.T.);
#1142=ADVANCED_FACE('',(#117),#62,.T.);
#1143=ADVANCED_FACE('',(#118),#63,.T.);
#1144=ADVANCED_FACE('',(#119),#64,.T.);
#1145=ADVANCED_FACE('',(#120),#65,.T.);
#1146=ADVANCED_FACE('',(#121),#66,.T.);
#1147=ADVANCED_FACE('',(#122),#67,.T.);
#1148=ADVANCED_FACE('',(#123),#68,.T.);
#1149=ADVANCED_FACE('',(#124),#69,.T.);
#1150=ADVANCED_FACE('',(#125),#70,.T.);
#1151=ADVANCED_FACE('',(#126),#71,.T.);
#1152=ADVANCED_FACE('',(#127,#25,#26,#27,#28,#29),#72,.T.);
#1153=ADVANCED_FACE('',(#128,#30),#73,.T.);
#1154=ADVANCED_FACE('',(#129,#31),#74,.T.);
#1155=ADVANCED_FACE('',(#130),#1098,.F.);
#1156=ADVANCED_FACE('',(#131),#1099,.F.);
#1157=ADVANCED_FACE('',(#132),#75,.T.);
#1158=ADVANCED_FACE('',(#133),#1100,.T.);
#1159=ADVANCED_FACE('',(#134),#76,.T.);
#1160=ADVANCED_FACE('',(#135),#1101,.T.);
#1161=ADVANCED_FACE('',(#136),#77,.T.);
#1162=ADVANCED_FACE('',(#137),#1102,.F.);
#1163=ADVANCED_FACE('',(#138),#78,.T.);
#1164=ADVANCED_FACE('',(#139),#1103,.F.);
#1165=CLOSED_SHELL('',(#1104,#1105,#1106,#1107,#1108,#1109,#1110,#1111,
#1112,#1113,#1114,#1115,#1116,#1117,#1118,#1119,#1120,#1121,#1122,#1123,
#1124,#1125,#1126,#1127,#1128,#1129,#1130,#1131,#1132,#1133,#1134,#1135,
#1136,#1137,#1138,#1139,#1140,#1141,#1142,#1143,#1144,#1145,#1146,#1147,
#1148,#1149,#1150,#1151,#1152,#1153,#1154,#1155,#1156,#1157,#1158,#1159,
#1160,#1161,#1162,#1163,#1164));
#1166=DERIVED_UNIT_ELEMENT(#1168,1.);
#1167=DERIVED_UNIT_ELEMENT(#1919,-3.);
#1168=(
MASS_UNIT()
NAMED_UNIT(*)
SI_UNIT(.KILO.,.GRAM.)
);
#1169=DERIVED_UNIT((#1166,#1167));
#1170=MEASURE_REPRESENTATION_ITEM('density measure',
POSITIVE_RATIO_MEASURE(7850.),#1169);
#1171=PROPERTY_DEFINITION_REPRESENTATION(#1176,#1173);
#1172=PROPERTY_DEFINITION_REPRESENTATION(#1177,#1174);
#1173=REPRESENTATION('material name',(#1175),#1916);
#1174=REPRESENTATION('density',(#1170),#1916);
#1175=DESCRIPTIVE_REPRESENTATION_ITEM('Stahl','Stahl');
#1176=PROPERTY_DEFINITION('material property','material name',#1926);
#1177=PROPERTY_DEFINITION('material property','density of part',#1926);
#1178=AXIS2_PLACEMENT_3D('',#1588,#1272,#1273);
#1179=AXIS2_PLACEMENT_3D('',#1589,#1274,#1275);
#1180=AXIS2_PLACEMENT_3D('',#1591,#1276,#1277);
#1181=AXIS2_PLACEMENT_3D('',#1594,#1279,#1280);
#1182=AXIS2_PLACEMENT_3D('',#1595,#1281,#1282);
#1183=AXIS2_PLACEMENT_3D('',#1597,#1283,#1284);
#1184=AXIS2_PLACEMENT_3D('',#1598,#1285,#1286);
#1185=AXIS2_PLACEMENT_3D('',#1600,#1287,#1288);
#1186=AXIS2_PLACEMENT_3D('',#1603,#1290,#1291);
#1187=AXIS2_PLACEMENT_3D('',#1604,#1292,#1293);
#1188=AXIS2_PLACEMENT_3D('',#1606,#1294,#1295);
#1189=AXIS2_PLACEMENT_3D('',#1607,#1296,#1297);
#1190=AXIS2_PLACEMENT_3D('',#1609,#1298,#1299);
#1191=AXIS2_PLACEMENT_3D('',#1612,#1301,#1302);
#1192=AXIS2_PLACEMENT_3D('',#1613,#1303,#1304);
#1193=AXIS2_PLACEMENT_3D('',#1615,#1305,#1306);
#1194=AXIS2_PLACEMENT_3D('',#1616,#1307,#1308);
#1195=AXIS2_PLACEMENT_3D('',#1619,#1310,#1311);
#1196=AXIS2_PLACEMENT_3D('',#1620,#1312,#1313);
#1197=AXIS2_PLACEMENT_3D('',#1623,#1315,#1316);
#1198=AXIS2_PLACEMENT_3D('',#1624,#1317,#1318);
#1199=AXIS2_PLACEMENT_3D('',#1627,#1320,#1321);
#1200=AXIS2_PLACEMENT_3D('',#1628,#1322,#1323);
#1201=AXIS2_PLACEMENT_3D('',#1637,#1328,#1329);
#1202=AXIS2_PLACEMENT_3D('',#1639,#1330,#1331);
#1203=AXIS2_PLACEMENT_3D('',#1641,#1332,#1333);
#1204=AXIS2_PLACEMENT_3D('',#1643,#1335,#1336);
#1205=AXIS2_PLACEMENT_3D('',#1649,#1340,#1341);
#1206=AXIS2_PLACEMENT_3D('',#1650,#1342,#1343);
#1207=AXIS2_PLACEMENT_3D('',#1651,#1344,#1345);
#1208=AXIS2_PLACEMENT_3D('',#1652,#1346,#1347);
#1209=AXIS2_PLACEMENT_3D('',#1661,#1352,#1353);
#1210=AXIS2_PLACEMENT_3D('',#1670,#1358,#1359);
#1211=AXIS2_PLACEMENT_3D('',#1676,#1363,#1364);
#1212=AXIS2_PLACEMENT_3D('',#1682,#1368,#1369);
#1213=AXIS2_PLACEMENT_3D('',#1699,#1378,#1379);
#1214=AXIS2_PLACEMENT_3D('',#1707,#1384,#1385);
#1215=AXIS2_PLACEMENT_3D('',#1713,#1389,#1390);
#1216=AXIS2_PLACEMENT_3D('',#1716,#1393,#1394);
#1217=AXIS2_PLACEMENT_3D('',#1718,#1396,#1397);
#1218=AXIS2_PLACEMENT_3D('',#1734,#1406,#1407);
#1219=AXIS2_PLACEMENT_3D('',#1737,#1410,#1411);
#1220=AXIS2_PLACEMENT_3D('',#1739,#1413,#1414);
#1221=AXIS2_PLACEMENT_3D('',#1741,#1416,#1417);
#1222=AXIS2_PLACEMENT_3D('',#1743,#1419,#1420);
#1223=AXIS2_PLACEMENT_3D('',#1747,#1423,#1424);
#1224=AXIS2_PLACEMENT_3D('',#1751,#1427,#1428);
#1225=AXIS2_PLACEMENT_3D('',#1754,#1431,#1432);
#1226=AXIS2_PLACEMENT_3D('',#1756,#1433,#1434);
#1227=AXIS2_PLACEMENT_3D('',#1760,#1436,#1437);
#1228=AXIS2_PLACEMENT_3D('',#1762,#1438,#1439);
#1229=AXIS2_PLACEMENT_3D('',#1778,#1447,#1448);
#1230=AXIS2_PLACEMENT_3D('',#1781,#1450,#1451);
#1231=AXIS2_PLACEMENT_3D('',#1783,#1452,#1453);
#1232=AXIS2_PLACEMENT_3D('',#1785,#1454,#1455);
#1233=AXIS2_PLACEMENT_3D('',#1786,#1456,#1457);
#1234=AXIS2_PLACEMENT_3D('',#1787,#1458,#1459);
#1235=AXIS2_PLACEMENT_3D('',#1791,#1462,#1463);
#1236=AXIS2_PLACEMENT_3D('',#1807,#1472,#1473);
#1237=AXIS2_PLACEMENT_3D('',#1813,#1477,#1478);
#1238=AXIS2_PLACEMENT_3D('',#1821,#1483,#1484);
#1239=AXIS2_PLACEMENT_3D('',#1825,#1487,#1488);
#1240=AXIS2_PLACEMENT_3D('',#1829,#1491,#1492);
#1241=AXIS2_PLACEMENT_3D('',#1843,#1500,#1501);
#1242=AXIS2_PLACEMENT_3D('',#1845,#1503,#1504);
#1243=AXIS2_PLACEMENT_3D('',#1849,#1507,#1508);
#1244=AXIS2_PLACEMENT_3D('',#1852,#1511,#1512);
#1245=AXIS2_PLACEMENT_3D('',#1854,#1514,#1515);
#1246=AXIS2_PLACEMENT_3D('',#1856,#1517,#1518);
#1247=AXIS2_PLACEMENT_3D('',#1858,#1520,#1521);
#1248=AXIS2_PLACEMENT_3D('',#1862,#1524,#1525);
#1249=AXIS2_PLACEMENT_3D('',#1866,#1528,#1529);
#1250=AXIS2_PLACEMENT_3D('',#1868,#1531,#1532);
#1251=AXIS2_PLACEMENT_3D('',#1870,#1533,#1534);
#1252=AXIS2_PLACEMENT_3D('',#1874,#1536,#1537);
#1253=AXIS2_PLACEMENT_3D('',#1875,#1538,#1539);
#1254=AXIS2_PLACEMENT_3D('',#1880,#1541,#1542);
#1255=AXIS2_PLACEMENT_3D('',#1883,#1544,#1545);
#1256=AXIS2_PLACEMENT_3D('',#1884,#1546,#1547);
#1257=AXIS2_PLACEMENT_3D('',#1886,#1548,#1549);
#1258=AXIS2_PLACEMENT_3D('',#1888,#1550,#1551);
#1259=AXIS2_PLACEMENT_3D('',#1889,#1552,#1553);
#1260=AXIS2_PLACEMENT_3D('',#1891,#1554,#1555);
#1261=AXIS2_PLACEMENT_3D('',#1893,#1556,#1557);
#1262=AXIS2_PLACEMENT_3D('',#1894,#1558,#1559);
#1263=AXIS2_PLACEMENT_3D('',#1896,#1561,#1562);
#1264=AXIS2_PLACEMENT_3D('',#1898,#1564,#1565);
#1265=AXIS2_PLACEMENT_3D('',#1899,#1566,#1567);
#1266=AXIS2_PLACEMENT_3D('',#1902,#1570,#1571);
#1267=AXIS2_PLACEMENT_3D('',#1904,#1573,#1574);
#1268=AXIS2_PLACEMENT_3D('',#1906,#1576,#1577);
#1269=AXIS2_PLACEMENT_3D('',#1909,#1580,#1581);
#1270=AXIS2_PLACEMENT_3D('',#1911,#1583,#1584);
#1271=AXIS2_PLACEMENT_3D('',#1913,#1586,#1587);
#1272=DIRECTION('axis',(0.,0.,1.));
#1273=DIRECTION('refdir',(1.,0.,0.));
#1274=DIRECTION('center_axis',(0.,0.,-1.));
#1275=DIRECTION('ref_axis',(1.,0.,0.));
#1276=DIRECTION('center_axis',(0.,0.,-1.));
#1277=DIRECTION('ref_axis',(1.,0.,0.));
#1278=DIRECTION('',(0.,0.,-1.));
#1279=DIRECTION('center_axis',(0.,0.,-1.));
#1280=DIRECTION('ref_axis',(1.,0.,0.));
#1281=DIRECTION('center_axis',(0.,0.,1.));
#1282=DIRECTION('ref_axis',(1.,0.,0.));
#1283=DIRECTION('center_axis',(0.,0.,1.));
#1284=DIRECTION('ref_axis',(1.,0.,0.));
#1285=DIRECTION('center_axis',(0.,0.,-1.));
#1286=DIRECTION('ref_axis',(1.,0.,0.));
#1287=DIRECTION('center_axis',(0.,0.,-1.));
#1288=DIRECTION('ref_axis',(1.,0.,0.));
#1289=DIRECTION('',(0.,0.,-1.));
#1290=DIRECTION('center_axis',(0.,0.,-1.));
#1291=DIRECTION('ref_axis',(1.,0.,0.));
#1292=DIRECTION('center_axis',(0.,0.,1.));
#1293=DIRECTION('ref_axis',(1.,0.,0.));
#1294=DIRECTION('center_axis',(0.,0.,1.));
#1295=DIRECTION('ref_axis',(1.,0.,0.));
#1296=DIRECTION('center_axis',(0.,0.,-1.));
#1297=DIRECTION('ref_axis',(1.,0.,0.));
#1298=DIRECTION('center_axis',(0.,0.,-1.));
#1299=DIRECTION('ref_axis',(1.,0.,0.));
#1300=DIRECTION('',(0.,0.,-1.));
#1301=DIRECTION('center_axis',(0.,0.,-1.));
#1302=DIRECTION('ref_axis',(1.,0.,0.));
#1303=DIRECTION('center_axis',(0.,0.,1.));
#1304=DIRECTION('ref_axis',(1.,0.,0.));
#1305=DIRECTION('center_axis',(0.,0.,1.));
#1306=DIRECTION('ref_axis',(1.,0.,0.));
#1307=DIRECTION('center_axis',(0.,0.,-1.));
#1308=DIRECTION('ref_axis',(1.,0.,0.));
#1309=DIRECTION('',(0.,0.,-1.));
#1310=DIRECTION('center_axis',(0.,0.,1.));
#1311=DIRECTION('ref_axis',(1.,0.,0.));
#1312=DIRECTION('center_axis',(0.,0.,-1.));
#1313=DIRECTION('ref_axis',(1.,0.,0.));
#1314=DIRECTION('',(0.,0.,-1.));
#1315=DIRECTION('center_axis',(0.,0.,1.));
#1316=DIRECTION('ref_axis',(1.,0.,0.));
#1317=DIRECTION('center_axis',(0.,0.,-1.));
#1318=DIRECTION('ref_axis',(1.,0.,0.));
#1319=DIRECTION('',(0.,0.,-1.));
#1320=DIRECTION('center_axis',(0.,0.,1.));
#1321=DIRECTION('ref_axis',(1.,0.,0.));
#1322=DIRECTION('center_axis',(1.,-9.17539689772856E-17,0.));
#1323=DIRECTION('ref_axis',(-9.17539689772856E-17,-1.,0.));
#1324=DIRECTION('',(9.17539689772856E-17,1.,0.));
#1325=DIRECTION('',(0.,0.,-1.));
#1326=DIRECTION('',(-9.17539689772856E-17,-1.,0.));
#1327=DIRECTION('',(0.,0.,-1.));
#1328=DIRECTION('center_axis',(0.,0.,-1.));
#1329=DIRECTION('ref_axis',(1.,0.,0.));
#1330=DIRECTION('center_axis',(0.,0.,1.));
#1331=DIRECTION('ref_axis',(1.,0.,0.));
#1332=DIRECTION('center_axis',(0.,0.,-1.));
#1333=DIRECTION('ref_axis',(1.,0.,0.));
#1334=DIRECTION('',(0.,0.,-1.));
#1335=DIRECTION('center_axis',(-1.,0.,0.));
#1336=DIRECTION('ref_axis',(0.,1.,0.));
#1337=DIRECTION('',(0.,-1.,0.));
#1338=DIRECTION('',(0.,1.,0.));
#1339=DIRECTION('',(0.,0.,-1.));
#1340=DIRECTION('center_axis',(0.,0.,-1.));
#1341=DIRECTION('ref_axis',(-1.,0.,0.));
#1342=DIRECTION('center_axis',(0.,0.,1.));
#1343=DIRECTION('ref_axis',(-1.,0.,0.));
#1344=DIRECTION('center_axis',(0.,0.,-1.));
#1345=DIRECTION('ref_axis',(-1.,0.,0.));
#1346=DIRECTION('center_axis',(0.422618261740701,-0.906307787036649,0.));
#1347=DIRECTION('ref_axis',(0.906307787036649,0.422618261740701,5.86500420158861E-17));
#1348=DIRECTION('',(-0.906307787036649,-0.422618261740701,-5.86500420158861E-17));
#1349=DIRECTION('',(0.,0.,-1.));
#1350=DIRECTION('',(0.906307787036649,0.422618261740701,5.86500420158861E-17));
#1351=DIRECTION('',(3.76394126812539E-34,9.68989357114866E-8,0.999999999999995));
#1352=DIRECTION('center_axis',(-0.906307787036462,0.422618261741103,0.));
#1353=DIRECTION('ref_axis',(-0.422618261741104,-0.906307787036462,0.));
#1354=DIRECTION('',(-0.422618261741104,-0.906307787036462,0.));
#1355=DIRECTION('',(0.,0.,1.));
#1356=DIRECTION('',(-0.422618261741104,-0.906307787036462,0.));
#1357=DIRECTION('',(0.,0.,1.));
#1358=DIRECTION('center_axis',(0.,1.,0.));
#1359=DIRECTION('ref_axis',(1.,0.,0.));
#1360=DIRECTION('',(1.,0.,0.));
#1361=DIRECTION('',(0.,0.,1.));
#1362=DIRECTION('',(-1.,0.,0.));
#1363=DIRECTION('center_axis',(1.,0.,0.));
#1364=DIRECTION('ref_axis',(0.,-1.,0.));
#1365=DIRECTION('',(0.,1.,0.));
#1366=DIRECTION('',(0.,0.,-1.));
#1367=DIRECTION('',(8.9673391402477E-33,-1.,0.));
#1368=DIRECTION('center_axis',(1.,0.,0.));
#1369=DIRECTION('ref_axis',(0.,1.,0.));
#1370=DIRECTION('',(0.,0.,-1.));
#1371=DIRECTION('',(-4.39243670853776E-32,-0.819152044288822,0.573576436351288));
#1372=DIRECTION('',(0.,0.,1.));
#1373=DIRECTION('',(1.28572266691265E-32,1.,0.));
#1374=DIRECTION('',(0.,0.,1.));
#1375=DIRECTION('',(0.,1.,0.));
#1376=DIRECTION('',(0.,0.,1.));
#1377=DIRECTION('',(0.,1.,0.));
#1378=DIRECTION('center_axis',(-1.,0.,0.));
#1379=DIRECTION('ref_axis',(0.,-1.,0.));
#1380=DIRECTION('',(0.,-1.,0.));
#1381=DIRECTION('',(0.,0.,1.));
#1382=DIRECTION('',(0.,-1.,0.));
#1383=DIRECTION('',(0.,0.,1.));
#1384=DIRECTION('center_axis',(0.,-1.,0.));
#1385=DIRECTION('ref_axis',(1.,0.,0.));
#1386=DIRECTION('',(1.,0.,0.));
#1387=DIRECTION('',(-3.76394126812539E-34,-9.68989357114866E-8,-0.999999999999995));
#1388=DIRECTION('',(1.,0.,0.));
#1389=DIRECTION('center_axis',(0.,1.,0.));
#1390=DIRECTION('ref_axis',(-1.,0.,0.));
#1391=DIRECTION('',(1.,0.,0.));
#1392=DIRECTION('',(-1.,0.,0.));
#1393=DIRECTION('center_axis',(0.,0.,-1.));
#1394=DIRECTION('ref_axis',(-1.,0.,0.));
#1395=DIRECTION('',(0.,1.,0.));
#1396=DIRECTION('center_axis',(1.,0.,0.));
#1397=DIRECTION('ref_axis',(0.,0.,-1.));
#1398=DIRECTION('',(0.,-1.,0.));
#1399=DIRECTION('',(0.,0.,-1.));
#1400=DIRECTION('',(-1.28572266691265E-32,-1.,0.));
#1401=DIRECTION('',(0.,0.,-1.));
#1402=DIRECTION('',(4.39243670853776E-32,0.819152044288822,-0.573576436351288));
#1403=DIRECTION('',(0.,0.,-1.));
#1404=DIRECTION('',(1.61263615435959E-33,-0.999999999999939,3.49656073982728E-7));
#1405=DIRECTION('',(3.76394126812539E-34,9.68989357114866E-8,0.999999999999995));
#1406=DIRECTION('center_axis',(0.,1.,0.));
#1407=DIRECTION('ref_axis',(0.,0.,-1.));
#1408=DIRECTION('',(-1.,0.,0.));
#1409=DIRECTION('',(-1.,0.,0.));
#1410=DIRECTION('center_axis',(0.,0.,-1.));
#1411=DIRECTION('ref_axis',(-1.28572266691265E-32,-1.,0.));
#1412=DIRECTION('',(-1.,0.,0.));
#1413=DIRECTION('center_axis',(0.,1.,0.));
#1414=DIRECTION('ref_axis',(0.,0.,-1.));
#1415=DIRECTION('',(-1.,0.,0.));
#1416=DIRECTION('center_axis',(0.,0.573576436351288,0.819152044288822));
#1417=DIRECTION('ref_axis',(4.39243670853776E-32,0.819152044288822,-0.573576436351288));
#1418=DIRECTION('',(-1.,0.,0.));
#1419=DIRECTION('center_axis',(0.,1.,0.));
#1420=DIRECTION('ref_axis',(0.,0.,-1.));
#1421=DIRECTION('',(0.,0.,-1.));
#1422=DIRECTION('',(-1.,0.,0.));
#1423=DIRECTION('center_axis',(0.,-3.49656073982728E-7,-0.999999999999939));
#1424=DIRECTION('ref_axis',(1.61263615435959E-33,-0.999999999999939,3.49656073982728E-7));
#1425=DIRECTION('',(1.61263615435959E-33,-0.999999999999939,3.49656073982728E-7));
#1426=DIRECTION('',(-1.,0.,0.));
#1427=DIRECTION('center_axis',(0.,-0.999999999999995,9.68989357114866E-8));
#1428=DIRECTION('ref_axis',(3.76394126812539E-34,9.68989357114866E-8,0.999999999999995));
#1429=DIRECTION('',(-3.76394126812539E-34,-9.68989357114866E-8,-0.999999999999995));
#1430=DIRECTION('',(-1.,0.,0.));
#1431=DIRECTION('center_axis',(0.,0.,1.));
#1432=DIRECTION('ref_axis',(1.,0.,0.));
#1433=DIRECTION('center_axis',(0.,0.,-1.));
#1434=DIRECTION('ref_axis',(1.,0.,0.));
#1435=DIRECTION('',(-0.999999999999965,-2.63812187609112E-7,0.));
#1436=DIRECTION('center_axis',(0.,0.,-1.));
#1437=DIRECTION('ref_axis',(1.,0.,0.));
#1438=DIRECTION('center_axis',(0.,0.,-1.));
#1439=DIRECTION('ref_axis',(1.,0.,0.));
#1440=DIRECTION('',(-4.35730756648696E-35,1.,0.));
#1441=DIRECTION('',(0.422618261741104,-0.906307787036462,0.));
#1442=DIRECTION('',(0.,-1.,0.));
#1443=DIRECTION('',(-1.,0.,0.));
#1444=DIRECTION('',(1.,0.,0.));
#1445=DIRECTION('',(0.906307787036649,-0.422618261740701,-5.86500420158861E-17));
#1446=DIRECTION('',(-9.17539689772856E-17,1.,0.));
#1447=DIRECTION('center_axis',(0.,0.,-1.));
#1448=DIRECTION('ref_axis',(1.,0.,0.));
#1449=DIRECTION('',(0.,-1.,0.));
#1450=DIRECTION('center_axis',(0.,0.,-1.));
#1451=DIRECTION('ref_axis',(-1.,0.,0.));
#1452=DIRECTION('center_axis',(0.,0.,1.));
#1453=DIRECTION('ref_axis',(1.,0.,0.));
#1454=DIRECTION('center_axis',(0.,0.,1.));
#1455=DIRECTION('ref_axis',(1.,0.,0.));
#1456=DIRECTION('center_axis',(1.,0.,0.));
#1457=DIRECTION('ref_axis',(0.,-1.,0.));
#1458=DIRECTION('center_axis',(0.422618261740701,0.906307787036649,0.));
#1459=DIRECTION('ref_axis',(-0.906307787036649,0.422618261740701,5.86500420158861E-17));
#1460=DIRECTION('',(-3.76394126812539E-34,9.68989357114866E-8,0.999999999999995));
#1461=DIRECTION('',(-0.906307787036649,0.422618261740701,5.86500420158861E-17));
#1462=DIRECTION('center_axis',(1.,0.,0.));
#1463=DIRECTION('ref_axis',(0.,0.,-1.));
#1464=DIRECTION('',(0.,-1.,0.));
#1465=DIRECTION('',(-3.76394126812539E-34,9.68989357114866E-8,0.999999999999995));
#1466=DIRECTION('',(-1.61263615435959E-33,-0.999999999999939,3.49656073982728E-7));
#1467=DIRECTION('',(0.,0.,-1.));
#1468=DIRECTION('',(-4.39243670853776E-32,0.819152044288822,-0.573576436351288));
#1469=DIRECTION('',(0.,0.,-1.));
#1470=DIRECTION('',(1.28572266691265E-32,-1.,0.));
#1471=DIRECTION('',(0.,0.,-1.));
#1472=DIRECTION('center_axis',(-0.906307787036462,-0.422618261741103,0.));
#1473=DIRECTION('ref_axis',(0.422618261741104,-0.906307787036462,0.));
#1474=DIRECTION('',(0.,0.,-1.));
#1475=DIRECTION('',(0.422618261741104,-0.906307787036462,0.));
#1476=DIRECTION('',(0.,0.,1.));
#1477=DIRECTION('center_axis',(0.,-1.,0.));
#1478=DIRECTION('ref_axis',(1.,0.,0.));
#1479=DIRECTION('',(1.,0.,0.));
#1480=DIRECTION('',(0.,0.,1.));
#1481=DIRECTION('',(1.,0.,0.));
#1482=DIRECTION('',(0.,0.,1.));
#1483=DIRECTION('center_axis',(-1.,0.,0.));
#1484=DIRECTION('ref_axis',(0.,-1.,0.));
#1485=DIRECTION('',(0.,-1.,0.));
#1486=DIRECTION('',(0.,0.,1.));
#1487=DIRECTION('center_axis',(0.,1.,0.));
#1488=DIRECTION('ref_axis',(-1.,0.,0.));
#1489=DIRECTION('',(-1.,0.,0.));
#1490=DIRECTION('',(3.76394126812539E-34,-9.68989357114866E-8,-0.999999999999995));
#1491=DIRECTION('center_axis',(1.,0.,0.));
#1492=DIRECTION('ref_axis',(0.,1.,0.));
#1493=DIRECTION('',(0.,0.,-1.));
#1494=DIRECTION('',(0.,1.,0.));
#1495=DIRECTION('',(4.35730756648696E-35,-1.,0.));
#1496=DIRECTION('',(0.,0.,1.));
#1497=DIRECTION('',(-1.28572266691265E-32,1.,0.));
#1498=DIRECTION('',(0.,0.,1.));
#1499=DIRECTION('',(4.39243670853776E-32,-0.819152044288822,0.573576436351288));
#1500=DIRECTION('center_axis',(0.,0.,1.));
#1501=DIRECTION('ref_axis',(1.,0.,0.));
#1502=DIRECTION('',(4.35730756648696E-35,-1.,0.));
#1503=DIRECTION('center_axis',(-1.,-4.35730756648696E-35,0.));
#1504=DIRECTION('ref_axis',(-4.35730756648696E-35,1.,0.));
#1505=DIRECTION('',(0.,0.,-1.));
#1506=DIRECTION('',(4.35730756648696E-35,-1.,0.));
#1507=DIRECTION('center_axis',(0.,-1.,0.));
#1508=DIRECTION('ref_axis',(0.,0.,-1.));
#1509=DIRECTION('',(-1.,0.,0.));
#1510=DIRECTION('',(1.,0.,0.));
#1511=DIRECTION('center_axis',(0.,0.,1.));
#1512=DIRECTION('ref_axis',(1.28572266691265E-32,-1.,0.));
#1513=DIRECTION('',(1.,0.,0.));
#1514=DIRECTION('center_axis',(0.,-1.,0.));
#1515=DIRECTION('ref_axis',(0.,0.,-1.));
#1516=DIRECTION('',(1.,0.,0.));
#1517=DIRECTION('center_axis',(0.,-0.573576436351288,-0.819152044288822));
#1518=DIRECTION('ref_axis',(-4.39243670853776E-32,0.819152044288822,-0.573576436351288));
#1519=DIRECTION('',(1.,0.,0.));
#1520=DIRECTION('center_axis',(0.,-1.,0.));
#1521=DIRECTION('ref_axis',(0.,0.,-1.));
#1522=DIRECTION('',(0.,0.,-1.));
#1523=DIRECTION('',(1.,0.,0.));
#1524=DIRECTION('center_axis',(0.,3.49656073982728E-7,0.999999999999939));
#1525=DIRECTION('ref_axis',(-1.61263615435959E-33,-0.999999999999939,3.49656073982728E-7));
#1526=DIRECTION('',(-1.61263615435959E-33,-0.999999999999939,3.49656073982728E-7));
#1527=DIRECTION('',(1.,0.,0.));
#1528=DIRECTION('center_axis',(0.,0.999999999999995,-9.68989357114866E-8));
#1529=DIRECTION('ref_axis',(-3.76394126812539E-34,9.68989357114866E-8,0.999999999999995));
#1530=DIRECTION('',(3.76394126812539E-34,-9.68989357114866E-8,-0.999999999999995));
#1531=DIRECTION('center_axis',(0.,0.,1.));
#1532=DIRECTION('ref_axis',(1.,0.,0.));
#1533=DIRECTION('center_axis',(0.,0.,-1.));
#1534=DIRECTION('ref_axis',(1.,0.,0.));
#1535=DIRECTION('',(0.999999999999965,2.63812187609112E-7,0.));
#1536=DIRECTION('center_axis',(0.,0.,-1.));
#1537=DIRECTION('ref_axis',(1.,0.,0.));
#1538=DIRECTION('center_axis',(0.,0.,-1.));
#1539=DIRECTION('ref_axis',(1.,0.,0.));
#1540=DIRECTION('',(9.17539689772856E-17,-1.,0.));
#1541=DIRECTION('center_axis',(0.,0.,1.));
#1542=DIRECTION('ref_axis',(-1.,0.,0.));
#1543=DIRECTION('',(0.,1.,0.));
#1544=DIRECTION('center_axis',(0.,0.,1.));
#1545=DIRECTION('ref_axis',(1.,0.,0.));
#1546=DIRECTION('center_axis',(0.,0.,1.));
#1547=DIRECTION('ref_axis',(1.,0.,0.));
#1548=DIRECTION('center_axis',(0.,0.,1.));
#1549=DIRECTION('ref_axis',(1.,0.,0.));
#1550=DIRECTION('center_axis',(0.,0.,-1.));
#1551=DIRECTION('ref_axis',(1.,0.,0.));
#1552=DIRECTION('center_axis',(0.,0.,1.));
#1553=DIRECTION('ref_axis',(1.,0.,0.));
#1554=DIRECTION('center_axis',(0.,0.,1.));
#1555=DIRECTION('ref_axis',(1.,0.,0.));
#1556=DIRECTION('center_axis',(0.,0.,-1.));
#1557=DIRECTION('ref_axis',(1.,0.,0.));
#1558=DIRECTION('center_axis',(0.,0.,-1.));
#1559=DIRECTION('ref_axis',(1.,0.,0.));
#1560=DIRECTION('',(0.,0.,1.));
#1561=DIRECTION('center_axis',(0.,0.,-1.));
#1562=DIRECTION('ref_axis',(1.,0.,0.));
#1563=DIRECTION('',(0.,0.,1.));
#1564=DIRECTION('center_axis',(-1.,-4.35730756648696E-35,0.));
#1565=DIRECTION('ref_axis',(-4.35730756648696E-35,1.,0.));
#1566=DIRECTION('center_axis',(0.,0.,-1.));
#1567=DIRECTION('ref_axis',(1.,0.,0.));
#1568=DIRECTION('',(0.,0.,1.));
#1569=DIRECTION('',(0.,0.,-1.));
#1570=DIRECTION('center_axis',(2.63812187609112E-7,-0.999999999999965,0.));
#1571=DIRECTION('ref_axis',(-0.999999999999965,-2.63812187609112E-7,0.));
#1572=DIRECTION('',(0.,0.,-1.));
#1573=DIRECTION('center_axis',(0.,0.,-1.));
#1574=DIRECTION('ref_axis',(1.,0.,0.));
#1575=DIRECTION('',(0.,0.,1.));
#1576=DIRECTION('center_axis',(1.,9.17539689772856E-17,0.));
#1577=DIRECTION('ref_axis',(9.17539689772856E-17,-1.,0.));
#1578=DIRECTION('',(0.,0.,-1.));
#1579=DIRECTION('',(0.,0.,-1.));
#1580=DIRECTION('center_axis',(0.,0.,1.));
#1581=DIRECTION('ref_axis',(-1.,0.,0.));
#1582=DIRECTION('',(0.,0.,-1.));
#1583=DIRECTION('center_axis',(-1.,0.,0.));
#1584=DIRECTION('ref_axis',(0.,1.,0.));
#1585=DIRECTION('',(0.,0.,-1.));
#1586=DIRECTION('center_axis',(0.,0.,1.));
#1587=DIRECTION('ref_axis',(1.,0.,0.));
#1588=CARTESIAN_POINT('',(0.,0.,0.));
#1589=CARTESIAN_POINT('Origin',(25.35,29.,0.));
#1590=CARTESIAN_POINT('',(22.35,29.,0.));
#1591=CARTESIAN_POINT('Origin',(25.35,29.,0.));
#1592=CARTESIAN_POINT('',(22.35,29.,-1.));
#1593=CARTESIAN_POINT('',(22.35,29.,0.));
#1594=CARTESIAN_POINT('Origin',(25.35,29.,-1.));
#1595=CARTESIAN_POINT('Origin',(25.35,29.,-1.));
#1596=CARTESIAN_POINT('',(23.7,29.,-1.));
#1597=CARTESIAN_POINT('Origin',(25.35,29.,-1.));
#1598=CARTESIAN_POINT('Origin',(25.35,20.,0.));
#1599=CARTESIAN_POINT('',(22.35,20.,0.));
#1600=CARTESIAN_POINT('Origin',(25.35,20.,0.));
#1601=CARTESIAN_POINT('',(22.35,20.,-1.));
#1602=CARTESIAN_POINT('',(22.35,20.,0.));
#1603=CARTESIAN_POINT('Origin',(25.35,20.,-1.));
#1604=CARTESIAN_POINT('Origin',(25.35,20.,-1.));
#1605=CARTESIAN_POINT('',(23.7,20.,-1.));
#1606=CARTESIAN_POINT('Origin',(25.35,20.,-1.));
#1607=CARTESIAN_POINT('Origin',(25.35,11.,0.));
#1608=CARTESIAN_POINT('',(22.35,11.,0.));
#1609=CARTESIAN_POINT('Origin',(25.35,11.,0.));
#1610=CARTESIAN_POINT('',(22.35,11.,-1.));
#1611=CARTESIAN_POINT('',(22.35,11.,0.));
#1612=CARTESIAN_POINT('Origin',(25.35,11.,-1.));
#1613=CARTESIAN_POINT('Origin',(25.35,11.,-1.));
#1614=CARTESIAN_POINT('',(23.7,11.,-1.));
#1615=CARTESIAN_POINT('Origin',(25.35,11.,-1.));
#1616=CARTESIAN_POINT('Origin',(25.35,20.,0.));
#1617=CARTESIAN_POINT('',(23.7,20.,-2.));
#1618=CARTESIAN_POINT('',(23.7,20.,0.));
#1619=CARTESIAN_POINT('Origin',(25.35,20.,-2.));
#1620=CARTESIAN_POINT('Origin',(25.35,29.,0.));
#1621=CARTESIAN_POINT('',(23.7,29.,-2.));
#1622=CARTESIAN_POINT('',(23.7,29.,0.));
#1623=CARTESIAN_POINT('Origin',(25.35,29.,-2.));
#1624=CARTESIAN_POINT('Origin',(25.35,11.,0.));
#1625=CARTESIAN_POINT('',(23.7,11.,-2.));
#1626=CARTESIAN_POINT('',(23.7,11.,0.));
#1627=CARTESIAN_POINT('Origin',(25.35,11.,-2.));
#1628=CARTESIAN_POINT('Origin',(17.,34.2,0.));
#1629=CARTESIAN_POINT('',(17.,10.,-2.));
#1630=CARTESIAN_POINT('',(17.,34.2,-2.));
#1631=CARTESIAN_POINT('',(17.,28.2533662477896,-2.));
#1632=CARTESIAN_POINT('',(17.,10.,0.));
#1633=CARTESIAN_POINT('',(17.,10.,0.));
#1634=CARTESIAN_POINT('',(17.,34.2,0.));
#1635=CARTESIAN_POINT('',(17.,28.2533662477896,0.));
#1636=CARTESIAN_POINT('',(17.,34.2,0.));
#1637=CARTESIAN_POINT('Origin',(12.,34.2,0.));
#1638=CARTESIAN_POINT('',(7.,34.2,-2.));
#1639=CARTESIAN_POINT('Origin',(12.,34.2,-2.));
#1640=CARTESIAN_POINT('',(7.,34.2,0.));
#1641=CARTESIAN_POINT('Origin',(12.,34.2,0.));
#1642=CARTESIAN_POINT('',(7.,34.2,0.));
#1643=CARTESIAN_POINT('Origin',(7.,10.,0.));
#1644=CARTESIAN_POINT('',(7.,10.,-2.));
#1645=CARTESIAN_POINT('',(7.,16.1533662477895,-2.));
#1646=CARTESIAN_POINT('',(7.,10.,0.));
#1647=CARTESIAN_POINT('',(7.,16.1533662477895,0.));
#1648=CARTESIAN_POINT('',(7.,10.,0.));
#1649=CARTESIAN_POINT('Origin',(12.,10.,0.));
#1650=CARTESIAN_POINT('Origin',(12.,10.,-2.));
#1651=CARTESIAN_POINT('Origin',(12.,10.,0.));
#1652=CARTESIAN_POINT('Origin',(41.4109844341944,44.2,-2.));
#1653=CARTESIAN_POINT('',(45.7,46.2,-2.));
#1654=CARTESIAN_POINT('',(41.4109844341944,44.2,-2.));
#1655=CARTESIAN_POINT('',(45.7,46.2000008042812,-2.));
#1656=CARTESIAN_POINT('',(41.4109844341944,44.2,0.));
#1657=CARTESIAN_POINT('',(41.4109844341944,44.2,-1.));
#1658=CARTESIAN_POINT('',(45.7,46.2000008042812,5.55111512312578E-16));
#1659=CARTESIAN_POINT('',(45.7,46.2000008042812,5.55111512312578E-16));
#1660=CARTESIAN_POINT('',(45.7,46.2000008042812,6.30020648924164));
#1661=CARTESIAN_POINT('Origin',(52.7000000298023,39.2,-2.));
#1662=CARTESIAN_POINT('',(52.7000000298023,39.2,-2.));
#1663=CARTESIAN_POINT('',(50.7,34.9109860950746,-2.));
#1664=CARTESIAN_POINT('',(52.7000000298023,39.2,-2.));
#1665=CARTESIAN_POINT('',(52.7000000298023,39.2,0.));
#1666=CARTESIAN_POINT('',(52.7000000298023,39.2,-2.));
#1667=CARTESIAN_POINT('',(50.7,34.9109860950746,0.));
#1668=CARTESIAN_POINT('',(52.7000000298023,39.2,0.));
#1669=CARTESIAN_POINT('',(50.7,34.9109860950746,-1.));
#1670=CARTESIAN_POINT('Origin',(0.,44.2,0.));
#1671=CARTESIAN_POINT('',(9.28901556580565,44.2,-2.));
#1672=CARTESIAN_POINT('',(50.7,44.2,-2.));
#1673=CARTESIAN_POINT('',(9.28901556580565,44.2,0.));
#1674=CARTESIAN_POINT('',(9.28901556580564,44.2,-1.));
#1675=CARTESIAN_POINT('',(50.7,44.2,0.));
#1676=CARTESIAN_POINT('Origin',(50.7,44.2,0.));
#1677=CARTESIAN_POINT('',(50.7,5.81285386961623,0.));
#1678=CARTESIAN_POINT('',(50.7,0.,0.));
#1679=CARTESIAN_POINT('',(50.7,5.81285386961623,-2.));
#1680=CARTESIAN_POINT('',(50.7,5.81285386961623,0.));
#1681=CARTESIAN_POINT('',(50.7,46.2,-2.));
#1682=CARTESIAN_POINT('Origin',(50.7,39.2,-2.));
#1683=CARTESIAN_POINT('',(50.7,43.2,6.3));
#1684=CARTESIAN_POINT('',(50.7,43.2,5.80020753821015));
#1685=CARTESIAN_POINT('',(50.7,43.2,6.30020753821015));
#1686=CARTESIAN_POINT('',(50.7,44.2,5.1));
#1687=CARTESIAN_POINT('',(50.7,44.2,5.1));
#1688=CARTESIAN_POINT('',(50.7,44.2,4.));
#1689=CARTESIAN_POINT('',(50.7,44.2,4.));
#1690=CARTESIAN_POINT('',(50.7,42.2,4.));
#1691=CARTESIAN_POINT('',(50.7,42.2,4.));
#1692=CARTESIAN_POINT('',(50.7,42.2,0.));
#1693=CARTESIAN_POINT('',(50.7,42.2,-2.));
#1694=CARTESIAN_POINT('',(50.7,39.2,0.));
#1695=CARTESIAN_POINT('',(50.7,0.,0.));
#1696=CARTESIAN_POINT('',(50.7,39.2,6.3));
#1697=CARTESIAN_POINT('',(50.7,39.2,-2.));
#1698=CARTESIAN_POINT('',(50.7,39.2,6.3));
#1699=CARTESIAN_POINT('Origin',(52.7000000298023,46.2,-2.));
#1700=CARTESIAN_POINT('',(52.7000000298023,46.2,-2.));
#1701=CARTESIAN_POINT('',(52.7000000298023,46.2,-2.));
#1702=CARTESIAN_POINT('',(52.7000000298023,46.2,6.3));
#1703=CARTESIAN_POINT('',(52.7000000298023,46.2,-2.));
#1704=CARTESIAN_POINT('',(52.7000000298023,39.2,6.3));
#1705=CARTESIAN_POINT('',(52.7000000298023,46.2,6.3));
#1706=CARTESIAN_POINT('',(52.7000000298023,39.2,-2.));
#1707=CARTESIAN_POINT('Origin',(50.7,46.2,-2.));
#1708=CARTESIAN_POINT('',(50.7,46.2,-2.));
#1709=CARTESIAN_POINT('',(50.7,46.2,-2.));
#1710=CARTESIAN_POINT('',(50.7,46.2,6.3));
#1711=CARTESIAN_POINT('',(50.7,46.2000008042812,6.30020648924164));
#1712=CARTESIAN_POINT('',(50.7,46.2,6.3));
#1713=CARTESIAN_POINT('Origin',(52.7000000298023,39.2,-2.));
#1714=CARTESIAN_POINT('',(52.2000000223517,39.2,0.));
#1715=CARTESIAN_POINT('',(52.7000000298023,39.2,6.3));
#1716=CARTESIAN_POINT('Origin',(51.7000000149012,42.7,6.3));
#1717=CARTESIAN_POINT('',(50.7,43.45,6.3));
#1718=CARTESIAN_POINT('Origin',(45.7,44.2000004021406,2.15010376910507));
#1719=CARTESIAN_POINT('',(45.7,42.2,0.));
#1720=CARTESIAN_POINT('',(45.7,44.7000004021406,5.55111512312578E-16));
#1721=CARTESIAN_POINT('',(45.7,42.2,4.));
#1722=CARTESIAN_POINT('',(45.7,42.2,-2.));
#1723=CARTESIAN_POINT('',(45.7,44.2,4.));
#1724=CARTESIAN_POINT('',(45.7,42.2,4.));
#1725=CARTESIAN_POINT('',(45.7,44.2,5.1));
#1726=CARTESIAN_POINT('',(45.7,44.2,4.));
#1727=CARTESIAN_POINT('',(45.7,43.2,5.80020753821015));
#1728=CARTESIAN_POINT('',(45.7,44.2,5.1));
#1729=CARTESIAN_POINT('',(45.7,43.2,6.30020753821015));
#1730=CARTESIAN_POINT('',(45.7,43.2,6.30020753821015));
#1731=CARTESIAN_POINT('',(45.7,46.2000008042812,6.30020648924164));
#1732=CARTESIAN_POINT('',(45.7,46.2000008042812,6.30020648924164));
#1733=CARTESIAN_POINT('',(45.7,46.2000008042812,6.30020648924164));
#1734=CARTESIAN_POINT('Origin',(50.7,42.2,4.));
#1735=CARTESIAN_POINT('',(38.025,42.2,0.));
#1736=CARTESIAN_POINT('',(50.7,42.2,4.));
#1737=CARTESIAN_POINT('Origin',(50.7,44.2,4.));
#1738=CARTESIAN_POINT('',(50.7,44.2,4.));
#1739=CARTESIAN_POINT('Origin',(50.7,44.2,5.1));
#1740=CARTESIAN_POINT('',(50.7,44.2,5.1));
#1741=CARTESIAN_POINT('Origin',(50.7,43.2,5.80020753821015));
#1742=CARTESIAN_POINT('',(50.7,43.2,5.80020753821015));
#1743=CARTESIAN_POINT('Origin',(50.7,43.2,6.30020753821015));
#1744=CARTESIAN_POINT('',(50.7,43.2,6.30020753821015));
#1745=CARTESIAN_POINT('',(50.7,43.2,6.30020753821015));
#1746=CARTESIAN_POINT('',(50.7,43.2,6.30020753821015));
#1747=CARTESIAN_POINT('Origin',(50.7,46.2000008042812,6.30020648924164));
#1748=CARTESIAN_POINT('',(50.7,46.2000008042812,6.30020648924164));
#1749=CARTESIAN_POINT('',(50.7,46.2000008042812,6.30020648924164));
#1750=CARTESIAN_POINT('',(50.7,46.2000008042812,6.30020648924164));
#1751=CARTESIAN_POINT('Origin',(50.7,46.2,-2.));
#1752=CARTESIAN_POINT('',(50.7,46.2000008042812,6.30020648924164));
#1753=CARTESIAN_POINT('',(50.7,46.2,-2.));
#1754=CARTESIAN_POINT('Origin',(25.35,22.3067324955791,-2.));
#1755=CARTESIAN_POINT('',(47.9448020113161,0.4134829407004,-2.));
#1756=CARTESIAN_POINT('Origin',(47.95,3.81347896730303,-2.));
#1757=CARTESIAN_POINT('',(2.74999998102649,0.413478967303025,-2.));
#1758=CARTESIAN_POINT('',(2.74999998102649,0.413478967303025,-2.));
#1759=CARTESIAN_POINT('',(-0.650000000000001,3.81347896730303,-2.));
#1760=CARTESIAN_POINT('Origin',(2.75,3.81347896730303,-2.));
#1761=CARTESIAN_POINT('',(1.66533453693773E-15,5.81285386961625,-2.));
#1762=CARTESIAN_POINT('Origin',(2.75,3.81347896730303,-2.));
#1763=CARTESIAN_POINT('',(-2.77555756156289E-16,34.9109860950746,-2.));
#1764=CARTESIAN_POINT('',(-1.92592994438724E-33,44.2,-2.));
#1765=CARTESIAN_POINT('',(-2.00000002980232,39.2,-2.));
#1766=CARTESIAN_POINT('',(-2.00000002980232,39.2,-2.));
#1767=CARTESIAN_POINT('',(-2.00000002980232,46.2,-2.));
#1768=CARTESIAN_POINT('',(-2.00000002980232,46.2,-2.));
#1769=CARTESIAN_POINT('',(3.56088518335932E-32,46.2,-2.));
#1770=CARTESIAN_POINT('',(0.,46.2,-2.));
#1771=CARTESIAN_POINT('',(5.,46.2,-2.));
#1772=CARTESIAN_POINT('',(3.56088518335932E-32,46.2,-2.));
#1773=CARTESIAN_POINT('',(5.,46.2000008042812,-2.));
#1774=CARTESIAN_POINT('',(33.7,10.,-2.));
#1775=CARTESIAN_POINT('',(33.7,34.2,-2.));
#1776=CARTESIAN_POINT('',(33.7,28.2533662477896,-2.));
#1777=CARTESIAN_POINT('',(43.7,10.,-2.));
#1778=CARTESIAN_POINT('Origin',(38.7,10.,-2.));
#1779=CARTESIAN_POINT('',(43.7,34.2,-2.));
#1780=CARTESIAN_POINT('',(43.7,16.1533662477895,-2.));
#1781=CARTESIAN_POINT('Origin',(38.7,34.2,-2.));
#1782=CARTESIAN_POINT('',(46.55,3.81347896730303,-2.));
#1783=CARTESIAN_POINT('Origin',(47.95,3.81347896730303,-2.));
#1784=CARTESIAN_POINT('',(1.35,3.81347896730303,-2.));
#1785=CARTESIAN_POINT('Origin',(2.75,3.81347896730303,-2.));
#1786=CARTESIAN_POINT('Origin',(50.7,44.2,0.));
#1787=CARTESIAN_POINT('Origin',(9.28901556580564,44.2,-2.));
#1788=CARTESIAN_POINT('',(5.,46.2000008042812,5.55111512312578E-16));
#1789=CARTESIAN_POINT('',(5.,46.2000008042812,6.30020648924164));
#1790=CARTESIAN_POINT('',(5.,46.2000008042812,5.55111512312578E-16));
#1791=CARTESIAN_POINT('Origin',(5.,44.2000004021406,2.15010376910507));
#1792=CARTESIAN_POINT('',(5.,42.2,0.));
#1793=CARTESIAN_POINT('',(5.,33.2533664488599,0.));
#1794=CARTESIAN_POINT('',(5.,46.2000008042812,6.30020648924164));
#1795=CARTESIAN_POINT('',(5.,46.2000008042812,6.30020648924164));
#1796=CARTESIAN_POINT('',(5.,43.2,6.30020753821015));
#1797=CARTESIAN_POINT('',(5.,46.2000008042812,6.30020648924164));
#1798=CARTESIAN_POINT('',(5.,43.2,5.80020753821015));
#1799=CARTESIAN_POINT('',(5.,43.2,6.30020753821015));
#1800=CARTESIAN_POINT('',(5.,44.2,5.1));
#1801=CARTESIAN_POINT('',(5.,44.2,5.1));
#1802=CARTESIAN_POINT('',(5.,44.2,4.));
#1803=CARTESIAN_POINT('',(5.,44.2,4.));
#1804=CARTESIAN_POINT('',(5.,42.2,4.));
#1805=CARTESIAN_POINT('',(5.,42.2,4.));
#1806=CARTESIAN_POINT('',(5.,42.2,-2.));
#1807=CARTESIAN_POINT('Origin',(-2.00000002980232,39.2,-2.));
#1808=CARTESIAN_POINT('',(-2.77555756156289E-16,34.9109860950746,0.));
#1809=CARTESIAN_POINT('',(0.,34.9109860950746,-1.));
#1810=CARTESIAN_POINT('',(-2.00000002980232,39.2,0.));
#1811=CARTESIAN_POINT('',(-2.00000002980232,39.2,0.));
#1812=CARTESIAN_POINT('',(-2.00000002980232,39.2,-2.));
#1813=CARTESIAN_POINT('Origin',(-2.00000002980232,39.2,-2.));
#1814=CARTESIAN_POINT('',(0.,39.2,0.));
#1815=CARTESIAN_POINT('',(-1.50000002235174,39.2,0.));
#1816=CARTESIAN_POINT('',(0.,39.2,6.3));
#1817=CARTESIAN_POINT('',(0.,39.2,-2.));
#1818=CARTESIAN_POINT('',(-2.00000002980232,39.2,6.3));
#1819=CARTESIAN_POINT('',(-2.00000002980232,39.2,6.3));
#1820=CARTESIAN_POINT('',(-2.00000002980232,39.2,-2.));
#1821=CARTESIAN_POINT('Origin',(-2.00000002980232,46.2,-2.));
#1822=CARTESIAN_POINT('',(-2.00000002980232,46.2,6.3));
#1823=CARTESIAN_POINT('',(-2.00000002980232,46.2,6.3));
#1824=CARTESIAN_POINT('',(-2.00000002980232,46.2,-2.));
#1825=CARTESIAN_POINT('Origin',(0.,46.2,-2.));
#1826=CARTESIAN_POINT('',(0.,46.2,6.3));
#1827=CARTESIAN_POINT('',(0.,46.2,6.3));
#1828=CARTESIAN_POINT('',(3.24847028597113E-32,46.2000008042812,6.30020648924164));
#1829=CARTESIAN_POINT('Origin',(0.,39.2,-2.));
#1830=CARTESIAN_POINT('',(0.,43.2,6.3));
#1831=CARTESIAN_POINT('',(2.76467930996193E-32,43.2,5.80020753821015));
#1832=CARTESIAN_POINT('',(2.76467930996193E-32,43.2,6.30020753821015));
#1833=CARTESIAN_POINT('',(0.,39.2,6.3));
#1834=CARTESIAN_POINT('',(-2.60504727397632E-34,42.2,0.));
#1835=CARTESIAN_POINT('',(-1.92592994438724E-33,44.2,0.));
#1836=CARTESIAN_POINT('',(-2.60504727397632E-34,42.2,4.));
#1837=CARTESIAN_POINT('',(-2.60504727397632E-34,42.2,-2.));
#1838=CARTESIAN_POINT('',(-2.59749580656506E-32,44.2,4.));
#1839=CARTESIAN_POINT('',(-2.60504727397632E-34,42.2,4.));
#1840=CARTESIAN_POINT('',(-2.59749580656506E-32,44.2,5.1));
#1841=CARTESIAN_POINT('',(-2.59749580656506E-32,44.2,4.));
#1842=CARTESIAN_POINT('',(-2.59749580656506E-32,44.2,5.1));
#1843=CARTESIAN_POINT('Origin',(-1.00000001490116,42.7,6.3));
#1844=CARTESIAN_POINT('',(0.,24.2564269348081,6.3));
#1845=CARTESIAN_POINT('Origin',(-2.53283921489619E-34,5.81285386961625,
0.));
#1846=CARTESIAN_POINT('',(1.66533453693773E-15,5.81285386961625,0.));
#1847=CARTESIAN_POINT('',(1.66533453693773E-15,5.81285386961625,0.));
#1848=CARTESIAN_POINT('',(-1.92592994438724E-33,44.2,0.));
#1849=CARTESIAN_POINT('Origin',(-2.60504727397632E-34,42.2,4.));
#1850=CARTESIAN_POINT('',(12.675,42.2,0.));
#1851=CARTESIAN_POINT('',(-2.60504727397632E-34,42.2,4.));
#1852=CARTESIAN_POINT('Origin',(-2.59749580656506E-32,44.2,4.));
#1853=CARTESIAN_POINT('',(-2.59749580656506E-32,44.2,4.));
#1854=CARTESIAN_POINT('Origin',(-2.59749580656506E-32,44.2,5.1));
#1855=CARTESIAN_POINT('',(-2.59749580656506E-32,44.2,5.1));
#1856=CARTESIAN_POINT('Origin',(2.76467930996193E-32,43.2,5.80020753821015));
#1857=CARTESIAN_POINT('',(2.76467930996193E-32,43.2,5.80020753821015));
#1858=CARTESIAN_POINT('Origin',(2.76467930996193E-32,43.2,6.30020753821015));
#1859=CARTESIAN_POINT('',(2.76467930996193E-32,43.2,6.30020753821015));
#1860=CARTESIAN_POINT('',(2.76467930996193E-32,43.2,6.30020753821015));
#1861=CARTESIAN_POINT('',(2.76467930996193E-32,43.2,6.30020753821015));
#1862=CARTESIAN_POINT('Origin',(3.24847028597113E-32,46.2000008042812,6.30020648924164));
#1863=CARTESIAN_POINT('',(3.24847028597113E-32,46.2000008042812,6.30020648924164));
#1864=CARTESIAN_POINT('',(3.24847028597113E-32,46.2000008042812,6.30020648924164));
#1865=CARTESIAN_POINT('',(3.24847028597113E-32,46.2000008042812,6.30020648924164));
#1866=CARTESIAN_POINT('Origin',(3.56088518335932E-32,46.2,-2.));
#1867=CARTESIAN_POINT('',(3.24847028597113E-32,46.2000008042812,6.30020648924164));
#1868=CARTESIAN_POINT('Origin',(25.35,22.3067324955791,0.));
#1869=CARTESIAN_POINT('',(2.74999998102649,0.413478967303025,0.));
#1870=CARTESIAN_POINT('Origin',(2.75,3.81347896730303,0.));
#1871=CARTESIAN_POINT('',(47.9448020113161,0.4134829407004,0.));
#1872=CARTESIAN_POINT('',(2.74999998102649,0.413478967303025,0.));
#1873=CARTESIAN_POINT('',(44.55,3.81347896730303,0.));
#1874=CARTESIAN_POINT('Origin',(47.95,3.81347896730303,0.));
#1875=CARTESIAN_POINT('Origin',(47.95,3.81347896730303,0.));
#1876=CARTESIAN_POINT('',(33.7,34.2,0.));
#1877=CARTESIAN_POINT('',(33.7,10.,0.));
#1878=CARTESIAN_POINT('',(33.7,28.2533662477896,0.));
#1879=CARTESIAN_POINT('',(43.7,34.2,0.));
#1880=CARTESIAN_POINT('Origin',(38.7,34.2,0.));
#1881=CARTESIAN_POINT('',(43.7,10.,0.));
#1882=CARTESIAN_POINT('',(43.7,16.1533662477895,0.));
#1883=CARTESIAN_POINT('Origin',(38.7,10.,0.));
#1884=CARTESIAN_POINT('Origin',(47.95,3.81347896730303,4.));
#1885=CARTESIAN_POINT('',(44.55,3.81347896730302,4.));
#1886=CARTESIAN_POINT('Origin',(47.95,3.81347896730303,4.));
#1887=CARTESIAN_POINT('',(46.55,3.81347896730303,4.));
#1888=CARTESIAN_POINT('Origin',(47.95,3.81347896730303,4.));
#1889=CARTESIAN_POINT('Origin',(2.75,3.81347896730303,4.));
#1890=CARTESIAN_POINT('',(-0.650000000000001,3.81347896730302,4.));
#1891=CARTESIAN_POINT('Origin',(2.75,3.81347896730303,4.));
#1892=CARTESIAN_POINT('',(1.35,3.81347896730303,4.));
#1893=CARTESIAN_POINT('Origin',(2.75,3.81347896730303,4.));
#1894=CARTESIAN_POINT('Origin',(47.95,3.81347896730303,0.));
#1895=CARTESIAN_POINT('',(46.55,3.81347896730303,0.));
#1896=CARTESIAN_POINT('Origin',(2.75,3.81347896730303,0.));
#1897=CARTESIAN_POINT('',(1.35,3.81347896730303,0.));
#1898=CARTESIAN_POINT('Origin',(-2.53283921489619E-34,5.81285386961625,
0.));
#1899=CARTESIAN_POINT('Origin',(2.75,3.81347896730303,0.));
#1900=CARTESIAN_POINT('',(-0.650000000000001,3.81347896730303,0.));
#1901=CARTESIAN_POINT('',(2.74999998102649,0.413478967303025,0.));
#1902=CARTESIAN_POINT('Origin',(47.9448020113141,0.413490890242618,0.));
#1903=CARTESIAN_POINT('',(47.9448020113161,0.4134829407004,0.));
#1904=CARTESIAN_POINT('Origin',(47.95,3.81347896730303,0.));
#1905=CARTESIAN_POINT('',(44.55,3.81347896730303,0.));
#1906=CARTESIAN_POINT('Origin',(33.7,34.2,0.));
#1907=CARTESIAN_POINT('',(33.7,34.2,0.));
#1908=CARTESIAN_POINT('',(33.7,10.,0.));
#1909=CARTESIAN_POINT('Origin',(38.7,34.2,0.));
#1910=CARTESIAN_POINT('',(43.7,34.2,0.));
#1911=CARTESIAN_POINT('Origin',(43.7,10.,0.));
#1912=CARTESIAN_POINT('',(43.7,10.,0.));
#1913=CARTESIAN_POINT('Origin',(38.7,10.,0.));
#1914=UNCERTAINTY_MEASURE_WITH_UNIT(LENGTH_MEASURE(0.01),#1918,
'DISTANCE_ACCURACY_VALUE',
'Maximum model space distance between geometric entities at asserted c
onnectivities');
#1915=UNCERTAINTY_MEASURE_WITH_UNIT(LENGTH_MEASURE(0.01),#1918,
'DISTANCE_ACCURACY_VALUE',
'Maximum model space distance between geometric entities at asserted c
onnectivities');
#1916=(
GEOMETRIC_REPRESENTATION_CONTEXT(3)
GLOBAL_UNCERTAINTY_ASSIGNED_CONTEXT((#1914))
GLOBAL_UNIT_ASSIGNED_CONTEXT((#1918,#1920,#1921))
REPRESENTATION_CONTEXT('','3D')
);
#1917=(
GEOMETRIC_REPRESENTATION_CONTEXT(3)
GLOBAL_UNCERTAINTY_ASSIGNED_CONTEXT((#1915))
GLOBAL_UNIT_ASSIGNED_CONTEXT((#1918,#1920,#1921))
REPRESENTATION_CONTEXT('','3D')
);
#1918=(
LENGTH_UNIT()
NAMED_UNIT(*)
SI_UNIT(.MILLI.,.METRE.)
);
#1919=(
LENGTH_UNIT()
NAMED_UNIT(*)
SI_UNIT($,.METRE.)
);
#1920=(
NAMED_UNIT(*)
PLANE_ANGLE_UNIT()
SI_UNIT($,.RADIAN.)
);
#1921=(
NAMED_UNIT(*)
SI_UNIT($,.STERADIAN.)
SOLID_ANGLE_UNIT()
);
#1922=SHAPE_DEFINITION_REPRESENTATION(#1923,#1924);
#1923=PRODUCT_DEFINITION_SHAPE('',$,#1926);
#1924=SHAPE_REPRESENTATION('',(#1178),#1916);
#1925=PRODUCT_DEFINITION_CONTEXT('part definition',#1930,'design');
#1926=PRODUCT_DEFINITION('homeplug_Hutschiene_Adapter',
'homeplug_Hutschiene_Adapter v5',#1927,#1925);
#1927=PRODUCT_DEFINITION_FORMATION('',$,#1932);
#1928=PRODUCT_RELATED_PRODUCT_CATEGORY('homeplug_Hutschiene_Adapter v5',
'homeplug_Hutschiene_Adapter v5',(#1932));
#1929=APPLICATION_PROTOCOL_DEFINITION('international standard',
'automotive_design',2009,#1930);
#1930=APPLICATION_CONTEXT(
'Core Data for Automotive Mechanical Design Process');
#1931=PRODUCT_CONTEXT('part definition',#1930,'mechanical');
#1932=PRODUCT('homeplug_Hutschiene_Adapter',
'homeplug_Hutschiene_Adapter v5',$,(#1931));
#1933=PRESENTATION_STYLE_ASSIGNMENT((#1934));
#1934=SURFACE_STYLE_USAGE(.BOTH.,#1935);
#1935=SURFACE_SIDE_STYLE('',(#1936));
#1936=SURFACE_STYLE_FILL_AREA(#1937);
#1937=FILL_AREA_STYLE('Stahl - satiniert',(#1938));
#1938=FILL_AREA_STYLE_COLOUR('Stahl - satiniert',#1939);
#1939=COLOUR_RGB('Stahl - satiniert',0.627450980392157,0.627450980392157,
0.627450980392157);
ENDSEC;
END-ISO-10303-21;
